%TF.GenerationSoftware,KiCad,Pcbnew,10.0.3*%
%TF.CreationDate,2026-06-17T13:53:03-03:00*%
%TF.ProjectId,emg-circuit-kicad,656d672d-6369-4726-9375-69742d6b6963,rev?*%
%TF.SameCoordinates,Original*%
%TF.FileFunction,Legend,Top*%
%TF.FilePolarity,Positive*%
%FSLAX46Y46*%
G04 Gerber Fmt 4.6, Leading zero omitted, Abs format (unit mm)*
G04 Created by KiCad (PCBNEW 10.0.3) date 2026-06-17 13:53:03*
%MOMM*%
%LPD*%
G01*
G04 APERTURE LIST*
%ADD10C,0.150000*%
%ADD11C,0.125000*%
%ADD12C,0.100000*%
%ADD13C,0.120000*%
%ADD14C,0.127000*%
%ADD15C,0.200000*%
G04 APERTURE END LIST*
D10*
X152403571Y-118688919D02*
X152594047Y-118688919D01*
X152594047Y-118688919D02*
X152689285Y-118736538D01*
X152689285Y-118736538D02*
X152784523Y-118831776D01*
X152784523Y-118831776D02*
X152832142Y-119022252D01*
X152832142Y-119022252D02*
X152832142Y-119355585D01*
X152832142Y-119355585D02*
X152784523Y-119546061D01*
X152784523Y-119546061D02*
X152689285Y-119641300D01*
X152689285Y-119641300D02*
X152594047Y-119688919D01*
X152594047Y-119688919D02*
X152403571Y-119688919D01*
X152403571Y-119688919D02*
X152308333Y-119641300D01*
X152308333Y-119641300D02*
X152213095Y-119546061D01*
X152213095Y-119546061D02*
X152165476Y-119355585D01*
X152165476Y-119355585D02*
X152165476Y-119022252D01*
X152165476Y-119022252D02*
X152213095Y-118831776D01*
X152213095Y-118831776D02*
X152308333Y-118736538D01*
X152308333Y-118736538D02*
X152403571Y-118688919D01*
X153784523Y-119688919D02*
X153213095Y-119688919D01*
X153498809Y-119688919D02*
X153498809Y-118688919D01*
X153498809Y-118688919D02*
X153403571Y-118831776D01*
X153403571Y-118831776D02*
X153308333Y-118927014D01*
X153308333Y-118927014D02*
X153213095Y-118974633D01*
D11*
X145169166Y-99059809D02*
X145002500Y-98821714D01*
X144883452Y-99059809D02*
X144883452Y-98559809D01*
X144883452Y-98559809D02*
X145073928Y-98559809D01*
X145073928Y-98559809D02*
X145121547Y-98583619D01*
X145121547Y-98583619D02*
X145145357Y-98607428D01*
X145145357Y-98607428D02*
X145169166Y-98655047D01*
X145169166Y-98655047D02*
X145169166Y-98726476D01*
X145169166Y-98726476D02*
X145145357Y-98774095D01*
X145145357Y-98774095D02*
X145121547Y-98797904D01*
X145121547Y-98797904D02*
X145073928Y-98821714D01*
X145073928Y-98821714D02*
X144883452Y-98821714D01*
X145597738Y-98726476D02*
X145597738Y-99059809D01*
X145478690Y-98536000D02*
X145359643Y-98893142D01*
X145359643Y-98893142D02*
X145669166Y-98893142D01*
D10*
X121133333Y-95574819D02*
X121133333Y-96384342D01*
X121133333Y-96384342D02*
X121180952Y-96479580D01*
X121180952Y-96479580D02*
X121228571Y-96527200D01*
X121228571Y-96527200D02*
X121323809Y-96574819D01*
X121323809Y-96574819D02*
X121514285Y-96574819D01*
X121514285Y-96574819D02*
X121609523Y-96527200D01*
X121609523Y-96527200D02*
X121657142Y-96479580D01*
X121657142Y-96479580D02*
X121704761Y-96384342D01*
X121704761Y-96384342D02*
X121704761Y-95574819D01*
X122085714Y-95574819D02*
X122704761Y-95574819D01*
X122704761Y-95574819D02*
X122371428Y-95955771D01*
X122371428Y-95955771D02*
X122514285Y-95955771D01*
X122514285Y-95955771D02*
X122609523Y-96003390D01*
X122609523Y-96003390D02*
X122657142Y-96051009D01*
X122657142Y-96051009D02*
X122704761Y-96146247D01*
X122704761Y-96146247D02*
X122704761Y-96384342D01*
X122704761Y-96384342D02*
X122657142Y-96479580D01*
X122657142Y-96479580D02*
X122609523Y-96527200D01*
X122609523Y-96527200D02*
X122514285Y-96574819D01*
X122514285Y-96574819D02*
X122228571Y-96574819D01*
X122228571Y-96574819D02*
X122133333Y-96527200D01*
X122133333Y-96527200D02*
X122085714Y-96479580D01*
X123133333Y-96193866D02*
X123895238Y-96193866D01*
X124228571Y-95574819D02*
X124799999Y-95574819D01*
X124514285Y-96574819D02*
X124514285Y-95574819D01*
X125133333Y-96574819D02*
X125133333Y-95574819D01*
X125133333Y-95574819D02*
X125514285Y-95574819D01*
X125514285Y-95574819D02*
X125609523Y-95622438D01*
X125609523Y-95622438D02*
X125657142Y-95670057D01*
X125657142Y-95670057D02*
X125704761Y-95765295D01*
X125704761Y-95765295D02*
X125704761Y-95908152D01*
X125704761Y-95908152D02*
X125657142Y-96003390D01*
X125657142Y-96003390D02*
X125609523Y-96051009D01*
X125609523Y-96051009D02*
X125514285Y-96098628D01*
X125514285Y-96098628D02*
X125133333Y-96098628D01*
X126561904Y-95908152D02*
X126561904Y-96574819D01*
X126323809Y-95527200D02*
X126085714Y-96241485D01*
X126085714Y-96241485D02*
X126704761Y-96241485D01*
X127276190Y-95574819D02*
X127371428Y-95574819D01*
X127371428Y-95574819D02*
X127466666Y-95622438D01*
X127466666Y-95622438D02*
X127514285Y-95670057D01*
X127514285Y-95670057D02*
X127561904Y-95765295D01*
X127561904Y-95765295D02*
X127609523Y-95955771D01*
X127609523Y-95955771D02*
X127609523Y-96193866D01*
X127609523Y-96193866D02*
X127561904Y-96384342D01*
X127561904Y-96384342D02*
X127514285Y-96479580D01*
X127514285Y-96479580D02*
X127466666Y-96527200D01*
X127466666Y-96527200D02*
X127371428Y-96574819D01*
X127371428Y-96574819D02*
X127276190Y-96574819D01*
X127276190Y-96574819D02*
X127180952Y-96527200D01*
X127180952Y-96527200D02*
X127133333Y-96479580D01*
X127133333Y-96479580D02*
X127085714Y-96384342D01*
X127085714Y-96384342D02*
X127038095Y-96193866D01*
X127038095Y-96193866D02*
X127038095Y-95955771D01*
X127038095Y-95955771D02*
X127085714Y-95765295D01*
X127085714Y-95765295D02*
X127133333Y-95670057D01*
X127133333Y-95670057D02*
X127180952Y-95622438D01*
X127180952Y-95622438D02*
X127276190Y-95574819D01*
X128514285Y-95574819D02*
X128038095Y-95574819D01*
X128038095Y-95574819D02*
X127990476Y-96051009D01*
X127990476Y-96051009D02*
X128038095Y-96003390D01*
X128038095Y-96003390D02*
X128133333Y-95955771D01*
X128133333Y-95955771D02*
X128371428Y-95955771D01*
X128371428Y-95955771D02*
X128466666Y-96003390D01*
X128466666Y-96003390D02*
X128514285Y-96051009D01*
X128514285Y-96051009D02*
X128561904Y-96146247D01*
X128561904Y-96146247D02*
X128561904Y-96384342D01*
X128561904Y-96384342D02*
X128514285Y-96479580D01*
X128514285Y-96479580D02*
X128466666Y-96527200D01*
X128466666Y-96527200D02*
X128371428Y-96574819D01*
X128371428Y-96574819D02*
X128133333Y-96574819D01*
X128133333Y-96574819D02*
X128038095Y-96527200D01*
X128038095Y-96527200D02*
X127990476Y-96479580D01*
X129419047Y-95574819D02*
X129228571Y-95574819D01*
X129228571Y-95574819D02*
X129133333Y-95622438D01*
X129133333Y-95622438D02*
X129085714Y-95670057D01*
X129085714Y-95670057D02*
X128990476Y-95812914D01*
X128990476Y-95812914D02*
X128942857Y-96003390D01*
X128942857Y-96003390D02*
X128942857Y-96384342D01*
X128942857Y-96384342D02*
X128990476Y-96479580D01*
X128990476Y-96479580D02*
X129038095Y-96527200D01*
X129038095Y-96527200D02*
X129133333Y-96574819D01*
X129133333Y-96574819D02*
X129323809Y-96574819D01*
X129323809Y-96574819D02*
X129419047Y-96527200D01*
X129419047Y-96527200D02*
X129466666Y-96479580D01*
X129466666Y-96479580D02*
X129514285Y-96384342D01*
X129514285Y-96384342D02*
X129514285Y-96146247D01*
X129514285Y-96146247D02*
X129466666Y-96051009D01*
X129466666Y-96051009D02*
X129419047Y-96003390D01*
X129419047Y-96003390D02*
X129323809Y-95955771D01*
X129323809Y-95955771D02*
X129133333Y-95955771D01*
X129133333Y-95955771D02*
X129038095Y-96003390D01*
X129038095Y-96003390D02*
X128990476Y-96051009D01*
X128990476Y-96051009D02*
X128942857Y-96146247D01*
X115657143Y-91074819D02*
X115657143Y-90074819D01*
X116133333Y-91074819D02*
X116133333Y-90074819D01*
X116133333Y-90074819D02*
X116704761Y-91074819D01*
X116704761Y-91074819D02*
X116704761Y-90074819D01*
X117180952Y-90693866D02*
X117942857Y-90693866D01*
X117561904Y-91074819D02*
X117561904Y-90312914D01*
X115657143Y-105074819D02*
X115657143Y-104074819D01*
X116133333Y-105074819D02*
X116133333Y-104074819D01*
X116133333Y-104074819D02*
X116704761Y-105074819D01*
X116704761Y-105074819D02*
X116704761Y-104074819D01*
X117180952Y-104693866D02*
X117942857Y-104693866D01*
X131680952Y-90074819D02*
X131871428Y-90074819D01*
X131871428Y-90074819D02*
X131966666Y-90122438D01*
X131966666Y-90122438D02*
X132061904Y-90217676D01*
X132061904Y-90217676D02*
X132109523Y-90408152D01*
X132109523Y-90408152D02*
X132109523Y-90741485D01*
X132109523Y-90741485D02*
X132061904Y-90931961D01*
X132061904Y-90931961D02*
X131966666Y-91027200D01*
X131966666Y-91027200D02*
X131871428Y-91074819D01*
X131871428Y-91074819D02*
X131680952Y-91074819D01*
X131680952Y-91074819D02*
X131585714Y-91027200D01*
X131585714Y-91027200D02*
X131490476Y-90931961D01*
X131490476Y-90931961D02*
X131442857Y-90741485D01*
X131442857Y-90741485D02*
X131442857Y-90408152D01*
X131442857Y-90408152D02*
X131490476Y-90217676D01*
X131490476Y-90217676D02*
X131585714Y-90122438D01*
X131585714Y-90122438D02*
X131680952Y-90074819D01*
X132538095Y-90074819D02*
X132538095Y-90884342D01*
X132538095Y-90884342D02*
X132585714Y-90979580D01*
X132585714Y-90979580D02*
X132633333Y-91027200D01*
X132633333Y-91027200D02*
X132728571Y-91074819D01*
X132728571Y-91074819D02*
X132919047Y-91074819D01*
X132919047Y-91074819D02*
X133014285Y-91027200D01*
X133014285Y-91027200D02*
X133061904Y-90979580D01*
X133061904Y-90979580D02*
X133109523Y-90884342D01*
X133109523Y-90884342D02*
X133109523Y-90074819D01*
X133442857Y-90074819D02*
X134014285Y-90074819D01*
X133728571Y-91074819D02*
X133728571Y-90074819D01*
X134347619Y-90693866D02*
X135109524Y-90693866D01*
X134728571Y-91074819D02*
X134728571Y-90312914D01*
X131680952Y-104074819D02*
X131871428Y-104074819D01*
X131871428Y-104074819D02*
X131966666Y-104122438D01*
X131966666Y-104122438D02*
X132061904Y-104217676D01*
X132061904Y-104217676D02*
X132109523Y-104408152D01*
X132109523Y-104408152D02*
X132109523Y-104741485D01*
X132109523Y-104741485D02*
X132061904Y-104931961D01*
X132061904Y-104931961D02*
X131966666Y-105027200D01*
X131966666Y-105027200D02*
X131871428Y-105074819D01*
X131871428Y-105074819D02*
X131680952Y-105074819D01*
X131680952Y-105074819D02*
X131585714Y-105027200D01*
X131585714Y-105027200D02*
X131490476Y-104931961D01*
X131490476Y-104931961D02*
X131442857Y-104741485D01*
X131442857Y-104741485D02*
X131442857Y-104408152D01*
X131442857Y-104408152D02*
X131490476Y-104217676D01*
X131490476Y-104217676D02*
X131585714Y-104122438D01*
X131585714Y-104122438D02*
X131680952Y-104074819D01*
X132538095Y-104074819D02*
X132538095Y-104884342D01*
X132538095Y-104884342D02*
X132585714Y-104979580D01*
X132585714Y-104979580D02*
X132633333Y-105027200D01*
X132633333Y-105027200D02*
X132728571Y-105074819D01*
X132728571Y-105074819D02*
X132919047Y-105074819D01*
X132919047Y-105074819D02*
X133014285Y-105027200D01*
X133014285Y-105027200D02*
X133061904Y-104979580D01*
X133061904Y-104979580D02*
X133109523Y-104884342D01*
X133109523Y-104884342D02*
X133109523Y-104074819D01*
X133442857Y-104074819D02*
X134014285Y-104074819D01*
X133728571Y-105074819D02*
X133728571Y-104074819D01*
X134347619Y-104693866D02*
X135109524Y-104693866D01*
X133752381Y-93051009D02*
X133895238Y-93098628D01*
X133895238Y-93098628D02*
X133942857Y-93146247D01*
X133942857Y-93146247D02*
X133990476Y-93241485D01*
X133990476Y-93241485D02*
X133990476Y-93384342D01*
X133990476Y-93384342D02*
X133942857Y-93479580D01*
X133942857Y-93479580D02*
X133895238Y-93527200D01*
X133895238Y-93527200D02*
X133800000Y-93574819D01*
X133800000Y-93574819D02*
X133419048Y-93574819D01*
X133419048Y-93574819D02*
X133419048Y-92574819D01*
X133419048Y-92574819D02*
X133752381Y-92574819D01*
X133752381Y-92574819D02*
X133847619Y-92622438D01*
X133847619Y-92622438D02*
X133895238Y-92670057D01*
X133895238Y-92670057D02*
X133942857Y-92765295D01*
X133942857Y-92765295D02*
X133942857Y-92860533D01*
X133942857Y-92860533D02*
X133895238Y-92955771D01*
X133895238Y-92955771D02*
X133847619Y-93003390D01*
X133847619Y-93003390D02*
X133752381Y-93051009D01*
X133752381Y-93051009D02*
X133419048Y-93051009D01*
X134419048Y-93193866D02*
X135180953Y-93193866D01*
X134800000Y-93574819D02*
X134800000Y-92812914D01*
X133752381Y-102051009D02*
X133895238Y-102098628D01*
X133895238Y-102098628D02*
X133942857Y-102146247D01*
X133942857Y-102146247D02*
X133990476Y-102241485D01*
X133990476Y-102241485D02*
X133990476Y-102384342D01*
X133990476Y-102384342D02*
X133942857Y-102479580D01*
X133942857Y-102479580D02*
X133895238Y-102527200D01*
X133895238Y-102527200D02*
X133800000Y-102574819D01*
X133800000Y-102574819D02*
X133419048Y-102574819D01*
X133419048Y-102574819D02*
X133419048Y-101574819D01*
X133419048Y-101574819D02*
X133752381Y-101574819D01*
X133752381Y-101574819D02*
X133847619Y-101622438D01*
X133847619Y-101622438D02*
X133895238Y-101670057D01*
X133895238Y-101670057D02*
X133942857Y-101765295D01*
X133942857Y-101765295D02*
X133942857Y-101860533D01*
X133942857Y-101860533D02*
X133895238Y-101955771D01*
X133895238Y-101955771D02*
X133847619Y-102003390D01*
X133847619Y-102003390D02*
X133752381Y-102051009D01*
X133752381Y-102051009D02*
X133419048Y-102051009D01*
X134419048Y-102193866D02*
X135180953Y-102193866D01*
D11*
X145169166Y-102509809D02*
X145002500Y-102271714D01*
X144883452Y-102509809D02*
X144883452Y-102009809D01*
X144883452Y-102009809D02*
X145073928Y-102009809D01*
X145073928Y-102009809D02*
X145121547Y-102033619D01*
X145121547Y-102033619D02*
X145145357Y-102057428D01*
X145145357Y-102057428D02*
X145169166Y-102105047D01*
X145169166Y-102105047D02*
X145169166Y-102176476D01*
X145169166Y-102176476D02*
X145145357Y-102224095D01*
X145145357Y-102224095D02*
X145121547Y-102247904D01*
X145121547Y-102247904D02*
X145073928Y-102271714D01*
X145073928Y-102271714D02*
X144883452Y-102271714D01*
X145621547Y-102009809D02*
X145383452Y-102009809D01*
X145383452Y-102009809D02*
X145359643Y-102247904D01*
X145359643Y-102247904D02*
X145383452Y-102224095D01*
X145383452Y-102224095D02*
X145431071Y-102200285D01*
X145431071Y-102200285D02*
X145550119Y-102200285D01*
X145550119Y-102200285D02*
X145597738Y-102224095D01*
X145597738Y-102224095D02*
X145621547Y-102247904D01*
X145621547Y-102247904D02*
X145645357Y-102295523D01*
X145645357Y-102295523D02*
X145645357Y-102414571D01*
X145645357Y-102414571D02*
X145621547Y-102462190D01*
X145621547Y-102462190D02*
X145597738Y-102486000D01*
X145597738Y-102486000D02*
X145550119Y-102509809D01*
X145550119Y-102509809D02*
X145431071Y-102509809D01*
X145431071Y-102509809D02*
X145383452Y-102486000D01*
X145383452Y-102486000D02*
X145359643Y-102462190D01*
D10*
X161953571Y-118688919D02*
X162144047Y-118688919D01*
X162144047Y-118688919D02*
X162239285Y-118736538D01*
X162239285Y-118736538D02*
X162334523Y-118831776D01*
X162334523Y-118831776D02*
X162382142Y-119022252D01*
X162382142Y-119022252D02*
X162382142Y-119355585D01*
X162382142Y-119355585D02*
X162334523Y-119546061D01*
X162334523Y-119546061D02*
X162239285Y-119641300D01*
X162239285Y-119641300D02*
X162144047Y-119688919D01*
X162144047Y-119688919D02*
X161953571Y-119688919D01*
X161953571Y-119688919D02*
X161858333Y-119641300D01*
X161858333Y-119641300D02*
X161763095Y-119546061D01*
X161763095Y-119546061D02*
X161715476Y-119355585D01*
X161715476Y-119355585D02*
X161715476Y-119022252D01*
X161715476Y-119022252D02*
X161763095Y-118831776D01*
X161763095Y-118831776D02*
X161858333Y-118736538D01*
X161858333Y-118736538D02*
X161953571Y-118688919D01*
X162763095Y-118784157D02*
X162810714Y-118736538D01*
X162810714Y-118736538D02*
X162905952Y-118688919D01*
X162905952Y-118688919D02*
X163144047Y-118688919D01*
X163144047Y-118688919D02*
X163239285Y-118736538D01*
X163239285Y-118736538D02*
X163286904Y-118784157D01*
X163286904Y-118784157D02*
X163334523Y-118879395D01*
X163334523Y-118879395D02*
X163334523Y-118974633D01*
X163334523Y-118974633D02*
X163286904Y-119117490D01*
X163286904Y-119117490D02*
X162715476Y-119688919D01*
X162715476Y-119688919D02*
X163334523Y-119688919D01*
D11*
X144931071Y-119759809D02*
X144764405Y-119521714D01*
X144645357Y-119759809D02*
X144645357Y-119259809D01*
X144645357Y-119259809D02*
X144835833Y-119259809D01*
X144835833Y-119259809D02*
X144883452Y-119283619D01*
X144883452Y-119283619D02*
X144907262Y-119307428D01*
X144907262Y-119307428D02*
X144931071Y-119355047D01*
X144931071Y-119355047D02*
X144931071Y-119426476D01*
X144931071Y-119426476D02*
X144907262Y-119474095D01*
X144907262Y-119474095D02*
X144883452Y-119497904D01*
X144883452Y-119497904D02*
X144835833Y-119521714D01*
X144835833Y-119521714D02*
X144645357Y-119521714D01*
X145407262Y-119759809D02*
X145121548Y-119759809D01*
X145264405Y-119759809D02*
X145264405Y-119259809D01*
X145264405Y-119259809D02*
X145216786Y-119331238D01*
X145216786Y-119331238D02*
X145169167Y-119378857D01*
X145169167Y-119378857D02*
X145121548Y-119402666D01*
X145716785Y-119259809D02*
X145764404Y-119259809D01*
X145764404Y-119259809D02*
X145812023Y-119283619D01*
X145812023Y-119283619D02*
X145835833Y-119307428D01*
X145835833Y-119307428D02*
X145859642Y-119355047D01*
X145859642Y-119355047D02*
X145883452Y-119450285D01*
X145883452Y-119450285D02*
X145883452Y-119569333D01*
X145883452Y-119569333D02*
X145859642Y-119664571D01*
X145859642Y-119664571D02*
X145835833Y-119712190D01*
X145835833Y-119712190D02*
X145812023Y-119736000D01*
X145812023Y-119736000D02*
X145764404Y-119759809D01*
X145764404Y-119759809D02*
X145716785Y-119759809D01*
X145716785Y-119759809D02*
X145669166Y-119736000D01*
X145669166Y-119736000D02*
X145645357Y-119712190D01*
X145645357Y-119712190D02*
X145621547Y-119664571D01*
X145621547Y-119664571D02*
X145597738Y-119569333D01*
X145597738Y-119569333D02*
X145597738Y-119450285D01*
X145597738Y-119450285D02*
X145621547Y-119355047D01*
X145621547Y-119355047D02*
X145645357Y-119307428D01*
X145645357Y-119307428D02*
X145669166Y-119283619D01*
X145669166Y-119283619D02*
X145716785Y-119259809D01*
X145169166Y-116309809D02*
X145002500Y-116071714D01*
X144883452Y-116309809D02*
X144883452Y-115809809D01*
X144883452Y-115809809D02*
X145073928Y-115809809D01*
X145073928Y-115809809D02*
X145121547Y-115833619D01*
X145121547Y-115833619D02*
X145145357Y-115857428D01*
X145145357Y-115857428D02*
X145169166Y-115905047D01*
X145169166Y-115905047D02*
X145169166Y-115976476D01*
X145169166Y-115976476D02*
X145145357Y-116024095D01*
X145145357Y-116024095D02*
X145121547Y-116047904D01*
X145121547Y-116047904D02*
X145073928Y-116071714D01*
X145073928Y-116071714D02*
X144883452Y-116071714D01*
X145407262Y-116309809D02*
X145502500Y-116309809D01*
X145502500Y-116309809D02*
X145550119Y-116286000D01*
X145550119Y-116286000D02*
X145573928Y-116262190D01*
X145573928Y-116262190D02*
X145621547Y-116190761D01*
X145621547Y-116190761D02*
X145645357Y-116095523D01*
X145645357Y-116095523D02*
X145645357Y-115905047D01*
X145645357Y-115905047D02*
X145621547Y-115857428D01*
X145621547Y-115857428D02*
X145597738Y-115833619D01*
X145597738Y-115833619D02*
X145550119Y-115809809D01*
X145550119Y-115809809D02*
X145454881Y-115809809D01*
X145454881Y-115809809D02*
X145407262Y-115833619D01*
X145407262Y-115833619D02*
X145383452Y-115857428D01*
X145383452Y-115857428D02*
X145359643Y-115905047D01*
X145359643Y-115905047D02*
X145359643Y-116024095D01*
X145359643Y-116024095D02*
X145383452Y-116071714D01*
X145383452Y-116071714D02*
X145407262Y-116095523D01*
X145407262Y-116095523D02*
X145454881Y-116119333D01*
X145454881Y-116119333D02*
X145550119Y-116119333D01*
X145550119Y-116119333D02*
X145597738Y-116095523D01*
X145597738Y-116095523D02*
X145621547Y-116071714D01*
X145621547Y-116071714D02*
X145645357Y-116024095D01*
D12*
X126511905Y-78717419D02*
X126511905Y-79526942D01*
X126511905Y-79526942D02*
X126559524Y-79622180D01*
X126559524Y-79622180D02*
X126607143Y-79669800D01*
X126607143Y-79669800D02*
X126702381Y-79717419D01*
X126702381Y-79717419D02*
X126892857Y-79717419D01*
X126892857Y-79717419D02*
X126988095Y-79669800D01*
X126988095Y-79669800D02*
X127035714Y-79622180D01*
X127035714Y-79622180D02*
X127083333Y-79526942D01*
X127083333Y-79526942D02*
X127083333Y-78717419D01*
X127511905Y-78812657D02*
X127559524Y-78765038D01*
X127559524Y-78765038D02*
X127654762Y-78717419D01*
X127654762Y-78717419D02*
X127892857Y-78717419D01*
X127892857Y-78717419D02*
X127988095Y-78765038D01*
X127988095Y-78765038D02*
X128035714Y-78812657D01*
X128035714Y-78812657D02*
X128083333Y-78907895D01*
X128083333Y-78907895D02*
X128083333Y-79003133D01*
X128083333Y-79003133D02*
X128035714Y-79145990D01*
X128035714Y-79145990D02*
X127464286Y-79717419D01*
X127464286Y-79717419D02*
X128083333Y-79717419D01*
X128511905Y-79336466D02*
X129273810Y-79336466D01*
X129750000Y-79717419D02*
X129750000Y-78717419D01*
X129750000Y-78717419D02*
X130083333Y-79431704D01*
X130083333Y-79431704D02*
X130416666Y-78717419D01*
X130416666Y-78717419D02*
X130416666Y-79717419D01*
X130750000Y-78717419D02*
X131321428Y-78717419D01*
X131035714Y-79717419D02*
X131035714Y-78717419D01*
X131559524Y-78717419D02*
X132178571Y-78717419D01*
X132178571Y-78717419D02*
X131845238Y-79098371D01*
X131845238Y-79098371D02*
X131988095Y-79098371D01*
X131988095Y-79098371D02*
X132083333Y-79145990D01*
X132083333Y-79145990D02*
X132130952Y-79193609D01*
X132130952Y-79193609D02*
X132178571Y-79288847D01*
X132178571Y-79288847D02*
X132178571Y-79526942D01*
X132178571Y-79526942D02*
X132130952Y-79622180D01*
X132130952Y-79622180D02*
X132083333Y-79669800D01*
X132083333Y-79669800D02*
X131988095Y-79717419D01*
X131988095Y-79717419D02*
X131702381Y-79717419D01*
X131702381Y-79717419D02*
X131607143Y-79669800D01*
X131607143Y-79669800D02*
X131559524Y-79622180D01*
X133035714Y-78717419D02*
X132845238Y-78717419D01*
X132845238Y-78717419D02*
X132750000Y-78765038D01*
X132750000Y-78765038D02*
X132702381Y-78812657D01*
X132702381Y-78812657D02*
X132607143Y-78955514D01*
X132607143Y-78955514D02*
X132559524Y-79145990D01*
X132559524Y-79145990D02*
X132559524Y-79526942D01*
X132559524Y-79526942D02*
X132607143Y-79622180D01*
X132607143Y-79622180D02*
X132654762Y-79669800D01*
X132654762Y-79669800D02*
X132750000Y-79717419D01*
X132750000Y-79717419D02*
X132940476Y-79717419D01*
X132940476Y-79717419D02*
X133035714Y-79669800D01*
X133035714Y-79669800D02*
X133083333Y-79622180D01*
X133083333Y-79622180D02*
X133130952Y-79526942D01*
X133130952Y-79526942D02*
X133130952Y-79288847D01*
X133130952Y-79288847D02*
X133083333Y-79193609D01*
X133083333Y-79193609D02*
X133035714Y-79145990D01*
X133035714Y-79145990D02*
X132940476Y-79098371D01*
X132940476Y-79098371D02*
X132750000Y-79098371D01*
X132750000Y-79098371D02*
X132654762Y-79145990D01*
X132654762Y-79145990D02*
X132607143Y-79193609D01*
X132607143Y-79193609D02*
X132559524Y-79288847D01*
X133750000Y-78717419D02*
X133845238Y-78717419D01*
X133845238Y-78717419D02*
X133940476Y-78765038D01*
X133940476Y-78765038D02*
X133988095Y-78812657D01*
X133988095Y-78812657D02*
X134035714Y-78907895D01*
X134035714Y-78907895D02*
X134083333Y-79098371D01*
X134083333Y-79098371D02*
X134083333Y-79336466D01*
X134083333Y-79336466D02*
X134035714Y-79526942D01*
X134035714Y-79526942D02*
X133988095Y-79622180D01*
X133988095Y-79622180D02*
X133940476Y-79669800D01*
X133940476Y-79669800D02*
X133845238Y-79717419D01*
X133845238Y-79717419D02*
X133750000Y-79717419D01*
X133750000Y-79717419D02*
X133654762Y-79669800D01*
X133654762Y-79669800D02*
X133607143Y-79622180D01*
X133607143Y-79622180D02*
X133559524Y-79526942D01*
X133559524Y-79526942D02*
X133511905Y-79336466D01*
X133511905Y-79336466D02*
X133511905Y-79098371D01*
X133511905Y-79098371D02*
X133559524Y-78907895D01*
X133559524Y-78907895D02*
X133607143Y-78812657D01*
X133607143Y-78812657D02*
X133654762Y-78765038D01*
X133654762Y-78765038D02*
X133750000Y-78717419D01*
X134654762Y-79145990D02*
X134559524Y-79098371D01*
X134559524Y-79098371D02*
X134511905Y-79050752D01*
X134511905Y-79050752D02*
X134464286Y-78955514D01*
X134464286Y-78955514D02*
X134464286Y-78907895D01*
X134464286Y-78907895D02*
X134511905Y-78812657D01*
X134511905Y-78812657D02*
X134559524Y-78765038D01*
X134559524Y-78765038D02*
X134654762Y-78717419D01*
X134654762Y-78717419D02*
X134845238Y-78717419D01*
X134845238Y-78717419D02*
X134940476Y-78765038D01*
X134940476Y-78765038D02*
X134988095Y-78812657D01*
X134988095Y-78812657D02*
X135035714Y-78907895D01*
X135035714Y-78907895D02*
X135035714Y-78955514D01*
X135035714Y-78955514D02*
X134988095Y-79050752D01*
X134988095Y-79050752D02*
X134940476Y-79098371D01*
X134940476Y-79098371D02*
X134845238Y-79145990D01*
X134845238Y-79145990D02*
X134654762Y-79145990D01*
X134654762Y-79145990D02*
X134559524Y-79193609D01*
X134559524Y-79193609D02*
X134511905Y-79241228D01*
X134511905Y-79241228D02*
X134464286Y-79336466D01*
X134464286Y-79336466D02*
X134464286Y-79526942D01*
X134464286Y-79526942D02*
X134511905Y-79622180D01*
X134511905Y-79622180D02*
X134559524Y-79669800D01*
X134559524Y-79669800D02*
X134654762Y-79717419D01*
X134654762Y-79717419D02*
X134845238Y-79717419D01*
X134845238Y-79717419D02*
X134940476Y-79669800D01*
X134940476Y-79669800D02*
X134988095Y-79622180D01*
X134988095Y-79622180D02*
X135035714Y-79526942D01*
X135035714Y-79526942D02*
X135035714Y-79336466D01*
X135035714Y-79336466D02*
X134988095Y-79241228D01*
X134988095Y-79241228D02*
X134940476Y-79193609D01*
X134940476Y-79193609D02*
X134845238Y-79145990D01*
D11*
X145169166Y-109409809D02*
X145002500Y-109171714D01*
X144883452Y-109409809D02*
X144883452Y-108909809D01*
X144883452Y-108909809D02*
X145073928Y-108909809D01*
X145073928Y-108909809D02*
X145121547Y-108933619D01*
X145121547Y-108933619D02*
X145145357Y-108957428D01*
X145145357Y-108957428D02*
X145169166Y-109005047D01*
X145169166Y-109005047D02*
X145169166Y-109076476D01*
X145169166Y-109076476D02*
X145145357Y-109124095D01*
X145145357Y-109124095D02*
X145121547Y-109147904D01*
X145121547Y-109147904D02*
X145073928Y-109171714D01*
X145073928Y-109171714D02*
X144883452Y-109171714D01*
X145335833Y-108909809D02*
X145669166Y-108909809D01*
X145669166Y-108909809D02*
X145454881Y-109409809D01*
D10*
X151785714Y-72653204D02*
X152261904Y-72653204D01*
X151690476Y-72938919D02*
X152023809Y-71938919D01*
X152023809Y-71938919D02*
X152357142Y-72938919D01*
X153214285Y-72938919D02*
X152642857Y-72938919D01*
X152928571Y-72938919D02*
X152928571Y-71938919D01*
X152928571Y-71938919D02*
X152833333Y-72081776D01*
X152833333Y-72081776D02*
X152738095Y-72177014D01*
X152738095Y-72177014D02*
X152642857Y-72224633D01*
X151785714Y-95179104D02*
X152261904Y-95179104D01*
X151690476Y-95464819D02*
X152023809Y-94464819D01*
X152023809Y-94464819D02*
X152357142Y-95464819D01*
X152642857Y-94560057D02*
X152690476Y-94512438D01*
X152690476Y-94512438D02*
X152785714Y-94464819D01*
X152785714Y-94464819D02*
X153023809Y-94464819D01*
X153023809Y-94464819D02*
X153119047Y-94512438D01*
X153119047Y-94512438D02*
X153166666Y-94560057D01*
X153166666Y-94560057D02*
X153214285Y-94655295D01*
X153214285Y-94655295D02*
X153214285Y-94750533D01*
X153214285Y-94750533D02*
X153166666Y-94893390D01*
X153166666Y-94893390D02*
X152595238Y-95464819D01*
X152595238Y-95464819D02*
X153214285Y-95464819D01*
D11*
X145169166Y-105959809D02*
X145002500Y-105721714D01*
X144883452Y-105959809D02*
X144883452Y-105459809D01*
X144883452Y-105459809D02*
X145073928Y-105459809D01*
X145073928Y-105459809D02*
X145121547Y-105483619D01*
X145121547Y-105483619D02*
X145145357Y-105507428D01*
X145145357Y-105507428D02*
X145169166Y-105555047D01*
X145169166Y-105555047D02*
X145169166Y-105626476D01*
X145169166Y-105626476D02*
X145145357Y-105674095D01*
X145145357Y-105674095D02*
X145121547Y-105697904D01*
X145121547Y-105697904D02*
X145073928Y-105721714D01*
X145073928Y-105721714D02*
X144883452Y-105721714D01*
X145597738Y-105459809D02*
X145502500Y-105459809D01*
X145502500Y-105459809D02*
X145454881Y-105483619D01*
X145454881Y-105483619D02*
X145431071Y-105507428D01*
X145431071Y-105507428D02*
X145383452Y-105578857D01*
X145383452Y-105578857D02*
X145359643Y-105674095D01*
X145359643Y-105674095D02*
X145359643Y-105864571D01*
X145359643Y-105864571D02*
X145383452Y-105912190D01*
X145383452Y-105912190D02*
X145407262Y-105936000D01*
X145407262Y-105936000D02*
X145454881Y-105959809D01*
X145454881Y-105959809D02*
X145550119Y-105959809D01*
X145550119Y-105959809D02*
X145597738Y-105936000D01*
X145597738Y-105936000D02*
X145621547Y-105912190D01*
X145621547Y-105912190D02*
X145645357Y-105864571D01*
X145645357Y-105864571D02*
X145645357Y-105745523D01*
X145645357Y-105745523D02*
X145621547Y-105697904D01*
X145621547Y-105697904D02*
X145597738Y-105674095D01*
X145597738Y-105674095D02*
X145550119Y-105650285D01*
X145550119Y-105650285D02*
X145454881Y-105650285D01*
X145454881Y-105650285D02*
X145407262Y-105674095D01*
X145407262Y-105674095D02*
X145383452Y-105697904D01*
X145383452Y-105697904D02*
X145359643Y-105745523D01*
X145169166Y-112859809D02*
X145002500Y-112621714D01*
X144883452Y-112859809D02*
X144883452Y-112359809D01*
X144883452Y-112359809D02*
X145073928Y-112359809D01*
X145073928Y-112359809D02*
X145121547Y-112383619D01*
X145121547Y-112383619D02*
X145145357Y-112407428D01*
X145145357Y-112407428D02*
X145169166Y-112455047D01*
X145169166Y-112455047D02*
X145169166Y-112526476D01*
X145169166Y-112526476D02*
X145145357Y-112574095D01*
X145145357Y-112574095D02*
X145121547Y-112597904D01*
X145121547Y-112597904D02*
X145073928Y-112621714D01*
X145073928Y-112621714D02*
X144883452Y-112621714D01*
X145454881Y-112574095D02*
X145407262Y-112550285D01*
X145407262Y-112550285D02*
X145383452Y-112526476D01*
X145383452Y-112526476D02*
X145359643Y-112478857D01*
X145359643Y-112478857D02*
X145359643Y-112455047D01*
X145359643Y-112455047D02*
X145383452Y-112407428D01*
X145383452Y-112407428D02*
X145407262Y-112383619D01*
X145407262Y-112383619D02*
X145454881Y-112359809D01*
X145454881Y-112359809D02*
X145550119Y-112359809D01*
X145550119Y-112359809D02*
X145597738Y-112383619D01*
X145597738Y-112383619D02*
X145621547Y-112407428D01*
X145621547Y-112407428D02*
X145645357Y-112455047D01*
X145645357Y-112455047D02*
X145645357Y-112478857D01*
X145645357Y-112478857D02*
X145621547Y-112526476D01*
X145621547Y-112526476D02*
X145597738Y-112550285D01*
X145597738Y-112550285D02*
X145550119Y-112574095D01*
X145550119Y-112574095D02*
X145454881Y-112574095D01*
X145454881Y-112574095D02*
X145407262Y-112597904D01*
X145407262Y-112597904D02*
X145383452Y-112621714D01*
X145383452Y-112621714D02*
X145359643Y-112669333D01*
X145359643Y-112669333D02*
X145359643Y-112764571D01*
X145359643Y-112764571D02*
X145383452Y-112812190D01*
X145383452Y-112812190D02*
X145407262Y-112836000D01*
X145407262Y-112836000D02*
X145454881Y-112859809D01*
X145454881Y-112859809D02*
X145550119Y-112859809D01*
X145550119Y-112859809D02*
X145597738Y-112836000D01*
X145597738Y-112836000D02*
X145621547Y-112812190D01*
X145621547Y-112812190D02*
X145645357Y-112764571D01*
X145645357Y-112764571D02*
X145645357Y-112669333D01*
X145645357Y-112669333D02*
X145621547Y-112621714D01*
X145621547Y-112621714D02*
X145597738Y-112597904D01*
X145597738Y-112597904D02*
X145550119Y-112574095D01*
X145169166Y-95609809D02*
X145002500Y-95371714D01*
X144883452Y-95609809D02*
X144883452Y-95109809D01*
X144883452Y-95109809D02*
X145073928Y-95109809D01*
X145073928Y-95109809D02*
X145121547Y-95133619D01*
X145121547Y-95133619D02*
X145145357Y-95157428D01*
X145145357Y-95157428D02*
X145169166Y-95205047D01*
X145169166Y-95205047D02*
X145169166Y-95276476D01*
X145169166Y-95276476D02*
X145145357Y-95324095D01*
X145145357Y-95324095D02*
X145121547Y-95347904D01*
X145121547Y-95347904D02*
X145073928Y-95371714D01*
X145073928Y-95371714D02*
X144883452Y-95371714D01*
X145335833Y-95109809D02*
X145645357Y-95109809D01*
X145645357Y-95109809D02*
X145478690Y-95300285D01*
X145478690Y-95300285D02*
X145550119Y-95300285D01*
X145550119Y-95300285D02*
X145597738Y-95324095D01*
X145597738Y-95324095D02*
X145621547Y-95347904D01*
X145621547Y-95347904D02*
X145645357Y-95395523D01*
X145645357Y-95395523D02*
X145645357Y-95514571D01*
X145645357Y-95514571D02*
X145621547Y-95562190D01*
X145621547Y-95562190D02*
X145597738Y-95586000D01*
X145597738Y-95586000D02*
X145550119Y-95609809D01*
X145550119Y-95609809D02*
X145407262Y-95609809D01*
X145407262Y-95609809D02*
X145359643Y-95586000D01*
X145359643Y-95586000D02*
X145335833Y-95562190D01*
X145169166Y-88709809D02*
X145002500Y-88471714D01*
X144883452Y-88709809D02*
X144883452Y-88209809D01*
X144883452Y-88209809D02*
X145073928Y-88209809D01*
X145073928Y-88209809D02*
X145121547Y-88233619D01*
X145121547Y-88233619D02*
X145145357Y-88257428D01*
X145145357Y-88257428D02*
X145169166Y-88305047D01*
X145169166Y-88305047D02*
X145169166Y-88376476D01*
X145169166Y-88376476D02*
X145145357Y-88424095D01*
X145145357Y-88424095D02*
X145121547Y-88447904D01*
X145121547Y-88447904D02*
X145073928Y-88471714D01*
X145073928Y-88471714D02*
X144883452Y-88471714D01*
X145645357Y-88709809D02*
X145359643Y-88709809D01*
X145502500Y-88709809D02*
X145502500Y-88209809D01*
X145502500Y-88209809D02*
X145454881Y-88281238D01*
X145454881Y-88281238D02*
X145407262Y-88328857D01*
X145407262Y-88328857D02*
X145359643Y-88352666D01*
X145169166Y-92159809D02*
X145002500Y-91921714D01*
X144883452Y-92159809D02*
X144883452Y-91659809D01*
X144883452Y-91659809D02*
X145073928Y-91659809D01*
X145073928Y-91659809D02*
X145121547Y-91683619D01*
X145121547Y-91683619D02*
X145145357Y-91707428D01*
X145145357Y-91707428D02*
X145169166Y-91755047D01*
X145169166Y-91755047D02*
X145169166Y-91826476D01*
X145169166Y-91826476D02*
X145145357Y-91874095D01*
X145145357Y-91874095D02*
X145121547Y-91897904D01*
X145121547Y-91897904D02*
X145073928Y-91921714D01*
X145073928Y-91921714D02*
X144883452Y-91921714D01*
X145359643Y-91707428D02*
X145383452Y-91683619D01*
X145383452Y-91683619D02*
X145431071Y-91659809D01*
X145431071Y-91659809D02*
X145550119Y-91659809D01*
X145550119Y-91659809D02*
X145597738Y-91683619D01*
X145597738Y-91683619D02*
X145621547Y-91707428D01*
X145621547Y-91707428D02*
X145645357Y-91755047D01*
X145645357Y-91755047D02*
X145645357Y-91802666D01*
X145645357Y-91802666D02*
X145621547Y-91874095D01*
X145621547Y-91874095D02*
X145335833Y-92159809D01*
X145335833Y-92159809D02*
X145645357Y-92159809D01*
%TO.C,O1*%
D13*
X152025000Y-120284100D02*
X153925000Y-120284100D01*
X152025000Y-122184100D02*
X152025000Y-120284100D01*
X153925000Y-120284100D02*
X153925000Y-122184100D01*
X153925000Y-122184100D02*
X152025000Y-122184100D01*
%TO.C,RV1*%
D14*
X134190000Y-107035000D02*
X139020000Y-107035000D01*
X134190000Y-116565000D02*
X134190000Y-107035000D01*
X139020000Y-107035000D02*
X139020000Y-116565000D01*
X139020000Y-116565000D02*
X134190000Y-116565000D01*
D15*
X136710000Y-117050000D02*
G75*
G02*
X136510000Y-117050000I-100000J0D01*
G01*
X136510000Y-117050000D02*
G75*
G02*
X136710000Y-117050000I100000J0D01*
G01*
%TO.C,R4*%
D14*
X142676500Y-100435000D02*
X143552500Y-100435000D01*
X143552500Y-99485000D02*
X146952500Y-99485000D01*
X143552500Y-100435000D02*
X143552500Y-99485000D01*
X143552500Y-101385000D02*
X143552500Y-100435000D01*
X146952500Y-99485000D02*
X146952500Y-100435000D01*
X146952500Y-100435000D02*
X146952500Y-101385000D01*
X146952500Y-100435000D02*
X147828500Y-100435000D01*
X146952500Y-101385000D02*
X143552500Y-101385000D01*
%TO.C,U3-TP4056*%
D13*
X111300000Y-89120000D02*
X111300000Y-106120000D01*
X111300000Y-89120000D02*
X139300000Y-89120000D01*
X111300000Y-106120000D02*
X139300000Y-106120000D01*
X139300000Y-89120000D02*
X139300000Y-106120000D01*
%TO.C,R5*%
D14*
X142676500Y-103885000D02*
X143552500Y-103885000D01*
X143552500Y-102935000D02*
X146952500Y-102935000D01*
X143552500Y-103885000D02*
X143552500Y-102935000D01*
X143552500Y-104835000D02*
X143552500Y-103885000D01*
X146952500Y-102935000D02*
X146952500Y-103885000D01*
X146952500Y-103885000D02*
X146952500Y-104835000D01*
X146952500Y-103885000D02*
X147828500Y-103885000D01*
X146952500Y-104835000D02*
X143552500Y-104835000D01*
%TO.C,O2*%
D13*
X161575000Y-120284100D02*
X163475000Y-120284100D01*
X161575000Y-122184100D02*
X161575000Y-120284100D01*
X163475000Y-120284100D02*
X163475000Y-122184100D01*
X163475000Y-122184100D02*
X161575000Y-122184100D01*
%TO.C,R10*%
D14*
X142676500Y-121135000D02*
X143552500Y-121135000D01*
X143552500Y-120185000D02*
X146952500Y-120185000D01*
X143552500Y-121135000D02*
X143552500Y-120185000D01*
X143552500Y-122085000D02*
X143552500Y-121135000D01*
X146952500Y-120185000D02*
X146952500Y-121135000D01*
X146952500Y-121135000D02*
X146952500Y-122085000D01*
X146952500Y-121135000D02*
X147828500Y-121135000D01*
X146952500Y-122085000D02*
X143552500Y-122085000D01*
%TO.C,R9*%
X142676500Y-117685000D02*
X143552500Y-117685000D01*
X143552500Y-116735000D02*
X146952500Y-116735000D01*
X143552500Y-117685000D02*
X143552500Y-116735000D01*
X143552500Y-118635000D02*
X143552500Y-117685000D01*
X146952500Y-116735000D02*
X146952500Y-117685000D01*
X146952500Y-117685000D02*
X146952500Y-118635000D01*
X146952500Y-117685000D02*
X147828500Y-117685000D01*
X146952500Y-118635000D02*
X143552500Y-118635000D01*
%TO.C,U2-MT3608*%
D12*
X111250000Y-71260000D02*
X148250000Y-71260000D01*
X111250000Y-88260000D02*
X111250000Y-71260000D01*
X148250000Y-71260000D02*
X148250000Y-88260000D01*
X148250000Y-88260000D02*
X111250000Y-88260000D01*
%TO.C,R7*%
D14*
X142676500Y-110785000D02*
X143552500Y-110785000D01*
X143552500Y-109835000D02*
X146952500Y-109835000D01*
X143552500Y-110785000D02*
X143552500Y-109835000D01*
X143552500Y-111735000D02*
X143552500Y-110785000D01*
X146952500Y-109835000D02*
X146952500Y-110785000D01*
X146952500Y-110785000D02*
X146952500Y-111735000D01*
X146952500Y-110785000D02*
X147828500Y-110785000D01*
X146952500Y-111735000D02*
X143552500Y-111735000D01*
%TO.C,A1*%
D12*
X151750000Y-73484100D02*
X163750000Y-73484100D01*
X151750000Y-90484100D02*
X151750000Y-73484100D01*
X163750000Y-73484100D02*
X163750000Y-90484100D01*
X163750000Y-90484100D02*
X151750000Y-90484100D01*
%TO.C,A2*%
X151750000Y-96010000D02*
X163750000Y-96010000D01*
X151750000Y-113010000D02*
X151750000Y-96010000D01*
X163750000Y-96010000D02*
X163750000Y-113010000D01*
X163750000Y-113010000D02*
X151750000Y-113010000D01*
%TO.C,R6*%
D14*
X142676500Y-107335000D02*
X143552500Y-107335000D01*
X143552500Y-106385000D02*
X146952500Y-106385000D01*
X143552500Y-107335000D02*
X143552500Y-106385000D01*
X143552500Y-108285000D02*
X143552500Y-107335000D01*
X146952500Y-106385000D02*
X146952500Y-107335000D01*
X146952500Y-107335000D02*
X146952500Y-108285000D01*
X146952500Y-107335000D02*
X147828500Y-107335000D01*
X146952500Y-108285000D02*
X143552500Y-108285000D01*
%TO.C,C3*%
D15*
X119030000Y-120220000D02*
G75*
G02*
X118830000Y-120220000I-100000J0D01*
G01*
X118830000Y-120220000D02*
G75*
G02*
X119030000Y-120220000I100000J0D01*
G01*
D14*
X124430000Y-120220000D02*
G75*
G02*
X119430000Y-120220000I-2500000J0D01*
G01*
X119430000Y-120220000D02*
G75*
G02*
X124430000Y-120220000I2500000J0D01*
G01*
%TO.C,R8*%
X142676500Y-114235000D02*
X143552500Y-114235000D01*
X143552500Y-113285000D02*
X146952500Y-113285000D01*
X143552500Y-114235000D02*
X143552500Y-113285000D01*
X143552500Y-115185000D02*
X143552500Y-114235000D01*
X146952500Y-113285000D02*
X146952500Y-114235000D01*
X146952500Y-114235000D02*
X146952500Y-115185000D01*
X146952500Y-114235000D02*
X147828500Y-114235000D01*
X146952500Y-115185000D02*
X143552500Y-115185000D01*
%TO.C,R3*%
X142676500Y-96985000D02*
X143552500Y-96985000D01*
X143552500Y-96035000D02*
X146952500Y-96035000D01*
X143552500Y-96985000D02*
X143552500Y-96035000D01*
X143552500Y-97935000D02*
X143552500Y-96985000D01*
X146952500Y-96035000D02*
X146952500Y-96985000D01*
X146952500Y-96985000D02*
X146952500Y-97935000D01*
X146952500Y-96985000D02*
X147828500Y-96985000D01*
X146952500Y-97935000D02*
X143552500Y-97935000D01*
%TO.C,U1*%
X111365000Y-108492500D02*
X112685000Y-108492500D01*
X111365000Y-115092500D02*
X111365000Y-108492500D01*
X112685000Y-115092500D02*
X111365000Y-115092500D01*
X129735000Y-108492500D02*
X131055000Y-108492500D01*
X131055000Y-108492500D02*
X131055000Y-115092500D01*
X131055000Y-115092500D02*
X129735000Y-115092500D01*
D15*
X113690000Y-116847500D02*
G75*
G02*
X113490000Y-116847500I-100000J0D01*
G01*
X113490000Y-116847500D02*
G75*
G02*
X113690000Y-116847500I100000J0D01*
G01*
%TO.C,C2*%
D14*
X133940000Y-119130000D02*
X133940000Y-122310000D01*
X133940000Y-122310000D02*
X139020000Y-122310000D01*
X139020000Y-119130000D02*
X133940000Y-119130000D01*
X139020000Y-122310000D02*
X139020000Y-119130000D01*
%TO.C,R1*%
X142676500Y-90085000D02*
X143552500Y-90085000D01*
X143552500Y-89135000D02*
X146952500Y-89135000D01*
X143552500Y-90085000D02*
X143552500Y-89135000D01*
X143552500Y-91035000D02*
X143552500Y-90085000D01*
X146952500Y-89135000D02*
X146952500Y-90085000D01*
X146952500Y-90085000D02*
X146952500Y-91035000D01*
X146952500Y-90085000D02*
X147828500Y-90085000D01*
X146952500Y-91035000D02*
X143552500Y-91035000D01*
%TO.C,C1*%
X126645000Y-119130000D02*
X126645000Y-122310000D01*
X126645000Y-122310000D02*
X131725000Y-122310000D01*
X131725000Y-119130000D02*
X126645000Y-119130000D01*
X131725000Y-122310000D02*
X131725000Y-119130000D01*
%TO.C,R2*%
X142676500Y-93535000D02*
X143552500Y-93535000D01*
X143552500Y-92585000D02*
X146952500Y-92585000D01*
X143552500Y-93535000D02*
X143552500Y-92585000D01*
X143552500Y-94485000D02*
X143552500Y-93535000D01*
X146952500Y-92585000D02*
X146952500Y-93535000D01*
X146952500Y-93535000D02*
X146952500Y-94485000D01*
X146952500Y-93535000D02*
X147828500Y-93535000D01*
X146952500Y-94485000D02*
X143552500Y-94485000D01*
%TO.C,C4*%
D15*
X111390000Y-120220000D02*
G75*
G02*
X111190000Y-120220000I-100000J0D01*
G01*
X111190000Y-120220000D02*
G75*
G02*
X111390000Y-120220000I100000J0D01*
G01*
D14*
X116790000Y-120220000D02*
G75*
G02*
X111790000Y-120220000I-2500000J0D01*
G01*
X111790000Y-120220000D02*
G75*
G02*
X116790000Y-120220000I2500000J0D01*
G01*
%TD*%
M02*
