%TF.GenerationSoftware,KiCad,Pcbnew,10.0.3*%
%TF.CreationDate,2026-06-17T13:53:03-03:00*%
%TF.ProjectId,emg-circuit-kicad,656d672d-6369-4726-9375-69742d6b6963,rev?*%
%TF.SameCoordinates,Original*%
%TF.FileFunction,Copper,L2,Bot*%
%TF.FilePolarity,Positive*%
%FSLAX46Y46*%
G04 Gerber Fmt 4.6, Leading zero omitted, Abs format (unit mm)*
G04 Created by KiCad (PCBNEW 10.0.3) date 2026-06-17 13:53:03*
%MOMM*%
%LPD*%
G01*
G04 APERTURE LIST*
%TA.AperFunction,ComponentPad*%
%ADD10R,1.500000X1.500000*%
%TD*%
%TA.AperFunction,ComponentPad*%
%ADD11R,1.218000X1.218000*%
%TD*%
%TA.AperFunction,ComponentPad*%
%ADD12C,1.218000*%
%TD*%
%TA.AperFunction,ComponentPad*%
%ADD13C,1.208000*%
%TD*%
%TA.AperFunction,ComponentPad*%
%ADD14C,2.000000*%
%TD*%
%TA.AperFunction,ComponentPad*%
%ADD15R,5.000000X3.000000*%
%TD*%
%TA.AperFunction,ComponentPad*%
%ADD16R,2.000000X2.000000*%
%TD*%
%TA.AperFunction,ComponentPad*%
%ADD17R,1.200000X1.200000*%
%TD*%
%TA.AperFunction,ComponentPad*%
%ADD18C,1.200000*%
%TD*%
%TA.AperFunction,ComponentPad*%
%ADD19R,1.170000X1.170000*%
%TD*%
%TA.AperFunction,ComponentPad*%
%ADD20C,1.170000*%
%TD*%
%TA.AperFunction,ComponentPad*%
%ADD21R,1.318000X1.318000*%
%TD*%
%TA.AperFunction,ComponentPad*%
%ADD22C,1.318000*%
%TD*%
%TA.AperFunction,ViaPad*%
%ADD23C,0.600000*%
%TD*%
%TA.AperFunction,Conductor*%
%ADD24C,0.200000*%
%TD*%
%TA.AperFunction,Conductor*%
%ADD25C,0.400000*%
%TD*%
G04 APERTURE END LIST*
D10*
%TO.P,O1,1,1_1*%
%TO.N,Net-(U1-2OUT)*%
X152975000Y-121234100D03*
%TD*%
D11*
%TO.P,RV1,1,1_1*%
%TO.N,Net-(U1-GND)*%
X136610000Y-114340000D03*
D12*
%TO.P,RV1,2,2_2*%
%TO.N,Net-(A1-Pad1)*%
X136610000Y-111800000D03*
%TO.P,RV1,3,3_3*%
%TO.N,Net-(U1-VCC)*%
X136610000Y-109260000D03*
%TD*%
D13*
%TO.P,R4,1*%
%TO.N,Net-(U1-3IN-)*%
X141602500Y-100435000D03*
%TO.P,R4,2*%
%TO.N,Net-(C3-Pad1)*%
X148902500Y-100435000D03*
%TD*%
D14*
%TO.P,U3-TP4056,1,IN+_1*%
%TO.N,unconnected-(U3-TP4056-IN+-Pad1)*%
X113300000Y-91120000D03*
%TO.P,U3-TP4056,2,IN-_2*%
%TO.N,unconnected-(U3-TP4056-IN--Pad2)*%
X113300000Y-104120000D03*
%TO.P,U3-TP4056,3,OUT+_3*%
%TO.N,Net-(U2-MT3608-VIN+)*%
X136300000Y-91120000D03*
%TO.P,U3-TP4056,4,OUT-_4*%
%TO.N,Net-(U2-MT3608-VIN-)*%
X136300000Y-104120000D03*
%TO.P,U3-TP4056,5,B+_5*%
%TO.N,unconnected-(U3-TP4056-B+-Pad5)*%
X136300000Y-94120000D03*
%TO.P,U3-TP4056,6,B-_6*%
%TO.N,unconnected-(U3-TP4056-B--Pad6)*%
X136300000Y-101120000D03*
%TD*%
D13*
%TO.P,R5,1*%
%TO.N,Net-(U1-1IN-)*%
X141602500Y-103885000D03*
%TO.P,R5,2*%
%TO.N,Net-(U1-1OUT)*%
X148902500Y-103885000D03*
%TD*%
D10*
%TO.P,O2,1,1_1*%
%TO.N,Net-(U1-4OUT)*%
X162525000Y-121234100D03*
%TD*%
D13*
%TO.P,R10,1*%
%TO.N,Net-(U1-2IN-)*%
X141602500Y-121135000D03*
%TO.P,R10,2*%
%TO.N,Net-(U1-2OUT)*%
X148902500Y-121135000D03*
%TD*%
%TO.P,R9,1*%
%TO.N,Net-(U1-4IN-)*%
X141602500Y-117685000D03*
%TO.P,R9,2*%
%TO.N,Net-(U1-4OUT)*%
X148902500Y-117685000D03*
%TD*%
D15*
%TO.P,U2-MT3608,VIN_N,VIN-_VIN_N*%
%TO.N,Net-(U2-MT3608-VIN-)*%
X145750000Y-83260000D03*
%TO.P,U2-MT3608,VIN_P,VIN+_VIN_P*%
%TO.N,Net-(U2-MT3608-VIN+)*%
X145750000Y-76260000D03*
%TO.P,U2-MT3608,VOUT_N,VOUT-_VOUT_N*%
%TO.N,Net-(U1-GND)*%
X113750000Y-83260000D03*
%TO.P,U2-MT3608,VOUT_P,VOUT+_VOUT_P*%
%TO.N,Net-(U1-VCC)*%
X113750000Y-76260000D03*
%TD*%
D13*
%TO.P,R7,1*%
%TO.N,Net-(U1-3OUT)*%
X141602500Y-110785000D03*
%TO.P,R7,2*%
%TO.N,Net-(U1-4IN-)*%
X148902500Y-110785000D03*
%TD*%
D16*
%TO.P,A1,1*%
%TO.N,Net-(A1-Pad1)*%
X161750000Y-75484100D03*
D14*
%TO.P,A1,2*%
%TO.N,Net-(U1-1IN+)*%
X153750000Y-75484100D03*
%TO.P,A1,3*%
%TO.N,Net-(U1-2IN+)*%
X159083333Y-75484100D03*
%TO.P,A1,4*%
%TO.N,N/C*%
X156416667Y-75484100D03*
%TD*%
D16*
%TO.P,A2,1*%
%TO.N,Net-(A1-Pad1)*%
X161750000Y-98010000D03*
D14*
%TO.P,A2,2*%
%TO.N,Net-(U1-3IN+)*%
X153750000Y-98010000D03*
%TO.P,A2,3*%
%TO.N,Net-(U1-4IN+)*%
X159083333Y-98010000D03*
%TO.P,A2,4*%
%TO.N,N/C*%
X156416667Y-98010000D03*
%TD*%
D13*
%TO.P,R6,1*%
%TO.N,Net-(U1-1IN-)*%
X141602500Y-107335000D03*
%TO.P,R6,2*%
%TO.N,Net-(C4-Pad1)*%
X148902500Y-107335000D03*
%TD*%
D17*
%TO.P,C3,1*%
%TO.N,Net-(C3-Pad1)*%
X120680000Y-120220000D03*
D18*
%TO.P,C3,2*%
%TO.N,Net-(U1-4IN-)*%
X123180000Y-120220000D03*
%TD*%
D13*
%TO.P,R8,1*%
%TO.N,Net-(U1-1OUT)*%
X141602500Y-114235000D03*
%TO.P,R8,2*%
%TO.N,Net-(U1-2IN-)*%
X148902500Y-114235000D03*
%TD*%
%TO.P,R3,1*%
%TO.N,Net-(U1-3IN-)*%
X141602500Y-96985000D03*
%TO.P,R3,2*%
%TO.N,Net-(U1-3OUT)*%
X148902500Y-96985000D03*
%TD*%
D19*
%TO.P,U1,1,1OUT_1*%
%TO.N,Net-(U1-1OUT)*%
X113590000Y-115762500D03*
D20*
%TO.P,U1,2,1IN-_2*%
%TO.N,Net-(U1-1IN-)*%
X116130000Y-115762500D03*
%TO.P,U1,3,1IN+_3*%
%TO.N,Net-(U1-1IN+)*%
X118670000Y-115762500D03*
%TO.P,U1,4,VCC_4*%
%TO.N,Net-(U1-VCC)*%
X121210000Y-115762500D03*
%TO.P,U1,5,2IN+_5*%
%TO.N,Net-(U1-2IN+)*%
X123750000Y-115762500D03*
%TO.P,U1,6,2IN-_6*%
%TO.N,Net-(U1-2IN-)*%
X126290000Y-115762500D03*
%TO.P,U1,7,2OUT_7*%
%TO.N,Net-(U1-2OUT)*%
X128830000Y-115762500D03*
%TO.P,U1,8,3OUT_8*%
%TO.N,Net-(U1-3OUT)*%
X128830000Y-107822500D03*
%TO.P,U1,9,3IN-_9*%
%TO.N,Net-(U1-3IN-)*%
X126290000Y-107822500D03*
%TO.P,U1,10,3IN+_10*%
%TO.N,Net-(U1-3IN+)*%
X123750000Y-107822500D03*
%TO.P,U1,11,GND_11*%
%TO.N,Net-(U1-GND)*%
X121210000Y-107822500D03*
%TO.P,U1,12,4IN+_12*%
%TO.N,Net-(U1-4IN+)*%
X118670000Y-107822500D03*
%TO.P,U1,13,4IN-_13*%
%TO.N,Net-(U1-4IN-)*%
X116130000Y-107822500D03*
%TO.P,U1,14,4OUT_14*%
%TO.N,Net-(U1-4OUT)*%
X113590000Y-107822500D03*
%TD*%
D21*
%TO.P,C2,1*%
%TO.N,Net-(U1-GND)*%
X135210000Y-120720000D03*
D22*
%TO.P,C2,2*%
%TO.N,Net-(C2-Pad2)*%
X137750000Y-120720000D03*
%TD*%
D13*
%TO.P,R1,1*%
%TO.N,Net-(C1-Pad2)*%
X141602500Y-90085000D03*
%TO.P,R1,2*%
%TO.N,Net-(U1-3IN-)*%
X148902500Y-90085000D03*
%TD*%
D21*
%TO.P,C1,1*%
%TO.N,Net-(U1-GND)*%
X127915000Y-120720000D03*
D22*
%TO.P,C1,2*%
%TO.N,Net-(C1-Pad2)*%
X130455000Y-120720000D03*
%TD*%
D13*
%TO.P,R2,1*%
%TO.N,Net-(C2-Pad2)*%
X141602500Y-93535000D03*
%TO.P,R2,2*%
%TO.N,Net-(U1-1IN-)*%
X148902500Y-93535000D03*
%TD*%
D17*
%TO.P,C4,1*%
%TO.N,Net-(C4-Pad1)*%
X113040000Y-120220000D03*
D18*
%TO.P,C4,2*%
%TO.N,Net-(U1-2IN-)*%
X115540000Y-120220000D03*
%TD*%
D23*
%TO.N,Net-(U1-1IN-)*%
X116840500Y-110625100D03*
%TD*%
%TO.N,Net-(C1-Pad2)*%
D24*
X139459800Y-92227700D02*
X141602500Y-90085000D01*
X139459800Y-103369300D02*
X139459800Y-92227700D01*
X130455000Y-112374100D02*
X139459800Y-103369300D01*
X130455000Y-120720000D02*
X130455000Y-112374100D01*
%TO.N,Net-(C2-Pad2)*%
X139861500Y-95276000D02*
X141602500Y-93535000D01*
X139861500Y-118608500D02*
X139861500Y-95276000D01*
X137750000Y-120720000D02*
X139861500Y-118608500D01*
%TO.N,Net-(U1-2IN+)*%
X148523400Y-86044000D02*
X159083300Y-75484100D01*
X144360800Y-86044000D02*
X148523400Y-86044000D01*
X138400000Y-92004800D02*
X144360800Y-86044000D01*
X138400000Y-103861000D02*
X138400000Y-92004800D01*
X136839300Y-105421700D02*
X138400000Y-103861000D01*
X134090800Y-105421700D02*
X136839300Y-105421700D01*
X123750000Y-115762500D02*
X134090800Y-105421700D01*
%TO.N,Net-(U1-3OUT)*%
X146776100Y-105611400D02*
X141602500Y-110785000D01*
X146776100Y-99111400D02*
X146776100Y-105611400D01*
X148902500Y-96985000D02*
X146776100Y-99111400D01*
%TO.N,Net-(U1-4IN-)*%
X142002500Y-117685000D02*
X141602500Y-117685000D01*
X148902500Y-110785000D02*
X142002500Y-117685000D01*
X118302500Y-109995000D02*
X116130000Y-107822500D01*
X118302500Y-114141000D02*
X118302500Y-109995000D01*
X118302600Y-114141000D02*
X118302500Y-114141000D01*
X123180000Y-119018400D02*
X118302600Y-114141000D01*
X123180000Y-120220000D02*
X123180000Y-119018400D01*
%TO.N,Net-(U1-2IN-)*%
X142002500Y-121135000D02*
X141602500Y-121135000D01*
X148902500Y-114235000D02*
X142002500Y-121135000D01*
%TO.N,Net-(U1-4OUT)*%
X143862500Y-122725000D02*
X148902500Y-117685000D01*
X121532800Y-122725000D02*
X143862500Y-122725000D01*
X117442200Y-118634400D02*
X121532800Y-122725000D01*
X117442200Y-110296800D02*
X117442200Y-118634400D01*
X116983000Y-109837600D02*
X117442200Y-110296800D01*
X115605100Y-109837600D02*
X116983000Y-109837600D01*
X113590000Y-107822500D02*
X115605100Y-109837600D01*
%TO.N,Net-(U1-1OUT)*%
X148902500Y-105649200D02*
X148902500Y-103885000D01*
X141602500Y-112949200D02*
X148902500Y-105649200D01*
X141602500Y-114235000D02*
X141602500Y-112949200D01*
%TO.N,Net-(U1-1IN-)*%
X144148300Y-101339200D02*
X141602500Y-103885000D01*
X144148300Y-98289200D02*
X144148300Y-101339200D01*
X148902500Y-93535000D02*
X144148300Y-98289200D01*
X141602500Y-107335000D02*
X141602500Y-103885000D01*
X116840500Y-115052000D02*
X116840500Y-110625100D01*
X116130000Y-115762500D02*
X116840500Y-115052000D01*
%TO.N,Net-(U2-MT3608-VIN-)*%
D25*
X137898300Y-102521700D02*
X136300000Y-104120000D01*
X137898300Y-91111700D02*
X137898300Y-102521700D01*
X145750000Y-83260000D02*
X137898300Y-91111700D01*
%TO.N,Net-(U2-MT3608-VIN+)*%
X142848300Y-84571700D02*
X136300000Y-91120000D01*
X142848300Y-76260000D02*
X142848300Y-84571700D01*
X145750000Y-76260000D02*
X142848300Y-76260000D01*
%TO.N,Net-(C3-Pad1)*%
D24*
X120680000Y-120220000D02*
X121581700Y-120220000D01*
X123675900Y-122314200D02*
X121581700Y-120220000D01*
X137580500Y-122314200D02*
X123675900Y-122314200D01*
X140696800Y-119197900D02*
X137580500Y-122314200D01*
X140696800Y-112971600D02*
X140696800Y-119197900D01*
X147377700Y-106290700D02*
X140696800Y-112971600D01*
X147377700Y-101959800D02*
X147377700Y-106290700D01*
X148902500Y-100435000D02*
X147377700Y-101959800D01*
%TO.N,Net-(U1-3IN-)*%
X141602500Y-96985000D02*
X141602500Y-100435000D01*
%TO.N,Net-(U1-VCC)*%
D25*
X122228000Y-114744500D02*
X121210000Y-115762500D01*
X122228000Y-81836300D02*
X122228000Y-114744500D01*
X116651700Y-76260000D02*
X122228000Y-81836300D01*
X113750000Y-76260000D02*
X116651700Y-76260000D01*
X121210000Y-116014900D02*
X121210000Y-115762500D01*
X126994300Y-121799200D02*
X121210000Y-116014900D01*
X130939600Y-121799200D02*
X126994300Y-121799200D01*
X134167800Y-118571000D02*
X130939600Y-121799200D01*
X134167800Y-111702200D02*
X134167800Y-118571000D01*
X136610000Y-109260000D02*
X134167800Y-111702200D01*
%TO.N,Net-(A1-Pad1)*%
D24*
X161750000Y-98010000D02*
X161750000Y-75484100D01*
%TO.N,Net-(U1-GND)*%
D25*
X135210000Y-116750700D02*
X136610000Y-115350700D01*
X135210000Y-120720000D02*
X135210000Y-116750700D01*
X136610000Y-114340000D02*
X136610000Y-115350700D01*
X116651700Y-103264200D02*
X121210000Y-107822500D01*
X116651700Y-83260000D02*
X116651700Y-103264200D01*
X113750000Y-83260000D02*
X116651700Y-83260000D01*
%TD*%
%TA.AperFunction,Conductor*%
%TO.N,Net-(U1-GND)*%
G36*
X139506945Y-103843869D02*
G01*
X139550210Y-103887134D01*
X139561000Y-103932079D01*
X139561000Y-118443020D01*
X139542093Y-118501211D01*
X139532004Y-118513024D01*
X138154106Y-119890921D01*
X138099589Y-119918698D01*
X138046217Y-119912381D01*
X138015675Y-119899730D01*
X138000710Y-119893531D01*
X138000704Y-119893529D01*
X137834655Y-119860500D01*
X137834653Y-119860500D01*
X137665347Y-119860500D01*
X137665344Y-119860500D01*
X137499293Y-119893530D01*
X137499291Y-119893530D01*
X137342876Y-119958319D01*
X137202101Y-120052383D01*
X137202097Y-120052386D01*
X137082386Y-120172097D01*
X137082383Y-120172101D01*
X136988319Y-120312876D01*
X136923530Y-120469291D01*
X136923530Y-120469293D01*
X136890500Y-120635344D01*
X136890500Y-120804655D01*
X136923530Y-120970706D01*
X136923530Y-120970708D01*
X136988319Y-121127123D01*
X136988320Y-121127125D01*
X136988321Y-121127126D01*
X137082383Y-121267899D01*
X137202101Y-121387617D01*
X137342874Y-121481679D01*
X137499293Y-121546470D01*
X137636870Y-121573835D01*
X137670117Y-121580449D01*
X137669682Y-121582631D01*
X137717758Y-121603618D01*
X137748735Y-121656382D01*
X137742782Y-121717277D01*
X137722055Y-121747672D01*
X137485026Y-121984703D01*
X137430509Y-122012481D01*
X137415022Y-122013700D01*
X131530501Y-122013700D01*
X131472310Y-121994793D01*
X131436346Y-121945293D01*
X131436346Y-121884107D01*
X131460497Y-121844696D01*
X132005493Y-121299700D01*
X133268818Y-120036375D01*
X134301000Y-120036375D01*
X134301000Y-120594999D01*
X134301001Y-120595000D01*
X134824207Y-120595000D01*
X134805000Y-120666681D01*
X134805000Y-120773319D01*
X134824207Y-120845000D01*
X134301001Y-120845000D01*
X134301000Y-120845001D01*
X134301000Y-121403624D01*
X134315506Y-121476546D01*
X134315507Y-121476548D01*
X134370758Y-121559237D01*
X134370762Y-121559241D01*
X134453451Y-121614492D01*
X134453453Y-121614493D01*
X134526375Y-121628999D01*
X134526377Y-121629000D01*
X135084999Y-121629000D01*
X135085000Y-121628999D01*
X135085000Y-121105793D01*
X135156681Y-121125000D01*
X135263319Y-121125000D01*
X135335000Y-121105793D01*
X135335000Y-121628999D01*
X135335001Y-121629000D01*
X135893623Y-121629000D01*
X135893624Y-121628999D01*
X135966546Y-121614493D01*
X135966548Y-121614492D01*
X136049237Y-121559241D01*
X136049241Y-121559237D01*
X136104492Y-121476548D01*
X136104493Y-121476546D01*
X136118999Y-121403624D01*
X136119000Y-121403622D01*
X136119000Y-120845001D01*
X136118999Y-120845000D01*
X135595793Y-120845000D01*
X135615000Y-120773319D01*
X135615000Y-120666681D01*
X135595793Y-120595000D01*
X136118999Y-120595000D01*
X136119000Y-120594999D01*
X136119000Y-120036377D01*
X136118999Y-120036375D01*
X136104493Y-119963453D01*
X136104492Y-119963451D01*
X136049241Y-119880762D01*
X136049237Y-119880758D01*
X135966548Y-119825507D01*
X135966546Y-119825506D01*
X135893624Y-119811000D01*
X135335001Y-119811000D01*
X135335000Y-119811001D01*
X135335000Y-120334206D01*
X135263319Y-120315000D01*
X135156681Y-120315000D01*
X135085000Y-120334206D01*
X135085000Y-119811001D01*
X135084999Y-119811000D01*
X134526375Y-119811000D01*
X134453453Y-119825506D01*
X134453451Y-119825507D01*
X134370762Y-119880758D01*
X134370758Y-119880762D01*
X134315507Y-119963451D01*
X134315506Y-119963453D01*
X134301000Y-120036375D01*
X133268818Y-120036375D01*
X134488280Y-118816913D01*
X134488283Y-118816908D01*
X134541005Y-118725592D01*
X134541005Y-118725590D01*
X134541007Y-118725588D01*
X134568300Y-118623727D01*
X134568300Y-118518273D01*
X134568300Y-113706375D01*
X135751000Y-113706375D01*
X135751000Y-114214999D01*
X135751001Y-114215000D01*
X136275971Y-114215000D01*
X136255000Y-114293263D01*
X136255000Y-114386737D01*
X136275971Y-114465000D01*
X135751001Y-114465000D01*
X135751000Y-114465001D01*
X135751000Y-114973624D01*
X135765506Y-115046546D01*
X135765507Y-115046548D01*
X135820758Y-115129237D01*
X135820762Y-115129241D01*
X135903451Y-115184492D01*
X135903453Y-115184493D01*
X135976375Y-115198999D01*
X135976377Y-115199000D01*
X136484999Y-115199000D01*
X136485000Y-115198999D01*
X136485000Y-114674029D01*
X136563263Y-114695000D01*
X136656737Y-114695000D01*
X136735000Y-114674029D01*
X136735000Y-115198999D01*
X136735001Y-115199000D01*
X137243623Y-115199000D01*
X137243624Y-115198999D01*
X137316546Y-115184493D01*
X137316548Y-115184492D01*
X137399237Y-115129241D01*
X137399241Y-115129237D01*
X137454492Y-115046548D01*
X137454493Y-115046546D01*
X137468999Y-114973624D01*
X137469000Y-114973622D01*
X137469000Y-114465001D01*
X137468999Y-114465000D01*
X136944029Y-114465000D01*
X136965000Y-114386737D01*
X136965000Y-114293263D01*
X136944029Y-114215000D01*
X137468999Y-114215000D01*
X137469000Y-114214999D01*
X137469000Y-113706377D01*
X137468999Y-113706375D01*
X137454493Y-113633453D01*
X137454492Y-113633451D01*
X137399241Y-113550762D01*
X137399237Y-113550758D01*
X137316548Y-113495507D01*
X137316546Y-113495506D01*
X137243624Y-113481000D01*
X136735001Y-113481000D01*
X136735000Y-113481001D01*
X136735000Y-114005970D01*
X136656737Y-113985000D01*
X136563263Y-113985000D01*
X136485000Y-114005970D01*
X136485000Y-113481001D01*
X136484999Y-113481000D01*
X135976375Y-113481000D01*
X135903453Y-113495506D01*
X135903451Y-113495507D01*
X135820762Y-113550758D01*
X135820758Y-113550762D01*
X135765507Y-113633451D01*
X135765506Y-113633453D01*
X135751000Y-113706375D01*
X134568300Y-113706375D01*
X134568300Y-111909100D01*
X134587207Y-111850909D01*
X134597290Y-111839102D01*
X134716124Y-111720268D01*
X135800500Y-111720268D01*
X135800500Y-111879731D01*
X135831608Y-112036121D01*
X135831608Y-112036123D01*
X135892628Y-112183439D01*
X135892628Y-112183440D01*
X135896737Y-112189589D01*
X135981220Y-112316026D01*
X136093974Y-112428780D01*
X136226558Y-112517370D01*
X136373878Y-112578392D01*
X136530271Y-112609500D01*
X136530272Y-112609500D01*
X136689728Y-112609500D01*
X136689729Y-112609500D01*
X136846122Y-112578392D01*
X136993442Y-112517370D01*
X137126026Y-112428780D01*
X137238780Y-112316026D01*
X137327370Y-112183442D01*
X137388392Y-112036122D01*
X137419500Y-111879729D01*
X137419500Y-111720271D01*
X137388392Y-111563878D01*
X137327371Y-111416560D01*
X137327371Y-111416559D01*
X137305298Y-111383525D01*
X137238780Y-111283974D01*
X137126026Y-111171220D01*
X136993442Y-111082630D01*
X136993441Y-111082629D01*
X136993439Y-111082628D01*
X136846122Y-111021608D01*
X136689731Y-110990500D01*
X136689729Y-110990500D01*
X136530271Y-110990500D01*
X136530268Y-110990500D01*
X136373878Y-111021608D01*
X136373876Y-111021608D01*
X136226560Y-111082628D01*
X136226559Y-111082628D01*
X136093974Y-111171220D01*
X136093970Y-111171223D01*
X135981223Y-111283970D01*
X135981220Y-111283974D01*
X135892628Y-111416559D01*
X135892628Y-111416560D01*
X135831608Y-111563876D01*
X135831608Y-111563878D01*
X135800500Y-111720268D01*
X134716124Y-111720268D01*
X136356582Y-110079809D01*
X136411097Y-110052034D01*
X136445895Y-110052716D01*
X136530271Y-110069500D01*
X136530272Y-110069500D01*
X136689728Y-110069500D01*
X136689729Y-110069500D01*
X136846122Y-110038392D01*
X136993442Y-109977370D01*
X137126026Y-109888780D01*
X137238780Y-109776026D01*
X137327370Y-109643442D01*
X137388392Y-109496122D01*
X137419500Y-109339729D01*
X137419500Y-109180271D01*
X137388392Y-109023878D01*
X137327371Y-108876560D01*
X137327371Y-108876559D01*
X137305298Y-108843525D01*
X137238780Y-108743974D01*
X137126026Y-108631220D01*
X136993442Y-108542630D01*
X136993441Y-108542629D01*
X136993439Y-108542628D01*
X136846122Y-108481608D01*
X136689731Y-108450500D01*
X136689729Y-108450500D01*
X136530271Y-108450500D01*
X136530268Y-108450500D01*
X136373878Y-108481608D01*
X136373876Y-108481608D01*
X136226560Y-108542628D01*
X136226559Y-108542628D01*
X136093974Y-108631220D01*
X136093970Y-108631223D01*
X135981223Y-108743970D01*
X135981220Y-108743974D01*
X135892628Y-108876559D01*
X135892628Y-108876560D01*
X135831608Y-109023876D01*
X135831608Y-109023878D01*
X135800500Y-109180268D01*
X135800500Y-109339735D01*
X135817281Y-109424102D01*
X135810089Y-109484863D01*
X135790187Y-109513418D01*
X133847317Y-111456290D01*
X133847316Y-111456291D01*
X133794594Y-111547607D01*
X133788063Y-111571983D01*
X133768391Y-111645404D01*
X133767300Y-111649474D01*
X133767300Y-118364098D01*
X133748393Y-118422289D01*
X133738304Y-118434102D01*
X131482393Y-120690013D01*
X131427876Y-120717790D01*
X131367444Y-120708219D01*
X131324179Y-120664954D01*
X131315291Y-120639323D01*
X131307305Y-120599174D01*
X131281470Y-120469293D01*
X131249074Y-120391083D01*
X131216680Y-120312876D01*
X131207303Y-120298842D01*
X131122617Y-120172101D01*
X131002899Y-120052383D01*
X130862126Y-119958321D01*
X130862124Y-119958320D01*
X130816613Y-119939468D01*
X130770088Y-119899730D01*
X130755500Y-119848004D01*
X130755500Y-112539579D01*
X130774407Y-112481388D01*
X130784496Y-112469575D01*
X139391996Y-103862075D01*
X139446513Y-103834298D01*
X139506945Y-103843869D01*
G37*
%TD.AperFunction*%
%TA.AperFunction,Conductor*%
G36*
X164458691Y-70111457D02*
G01*
X164494655Y-70160957D01*
X164499500Y-70191550D01*
X164499500Y-123992550D01*
X164480593Y-124050741D01*
X164431093Y-124086705D01*
X164400500Y-124091550D01*
X110599500Y-124091550D01*
X110541309Y-124072643D01*
X110505345Y-124023143D01*
X110500500Y-123992550D01*
X110500500Y-119600253D01*
X112239500Y-119600253D01*
X112239500Y-120839746D01*
X112239501Y-120839758D01*
X112251132Y-120898227D01*
X112251134Y-120898233D01*
X112271957Y-120929396D01*
X112295448Y-120964552D01*
X112361769Y-121008867D01*
X112406231Y-121017711D01*
X112420241Y-121020498D01*
X112420246Y-121020498D01*
X112420252Y-121020500D01*
X112420253Y-121020500D01*
X113659747Y-121020500D01*
X113659748Y-121020500D01*
X113718231Y-121008867D01*
X113784552Y-120964552D01*
X113828867Y-120898231D01*
X113840500Y-120839748D01*
X113840500Y-120141155D01*
X114739500Y-120141155D01*
X114739500Y-120298844D01*
X114748204Y-120342600D01*
X114769851Y-120451428D01*
X114770263Y-120453496D01*
X114770263Y-120453498D01*
X114830603Y-120599174D01*
X114830609Y-120599185D01*
X114862378Y-120646729D01*
X114918211Y-120730289D01*
X115029711Y-120841789D01*
X115107876Y-120894017D01*
X115160814Y-120929390D01*
X115160825Y-120929396D01*
X115214638Y-120951685D01*
X115306503Y-120989737D01*
X115461158Y-121020500D01*
X115461159Y-121020500D01*
X115618841Y-121020500D01*
X115618842Y-121020500D01*
X115773497Y-120989737D01*
X115919179Y-120929394D01*
X116050289Y-120841789D01*
X116161789Y-120730289D01*
X116249394Y-120599179D01*
X116309737Y-120453497D01*
X116340500Y-120298842D01*
X116340500Y-120141158D01*
X116309737Y-119986503D01*
X116281984Y-119919500D01*
X116249396Y-119840825D01*
X116249390Y-119840814D01*
X116214017Y-119787876D01*
X116161789Y-119709711D01*
X116050289Y-119598211D01*
X115998059Y-119563312D01*
X115919185Y-119510609D01*
X115919174Y-119510603D01*
X115773497Y-119450263D01*
X115618844Y-119419500D01*
X115618842Y-119419500D01*
X115461158Y-119419500D01*
X115461155Y-119419500D01*
X115306503Y-119450263D01*
X115306501Y-119450263D01*
X115160825Y-119510603D01*
X115160814Y-119510609D01*
X115029711Y-119598211D01*
X115029707Y-119598214D01*
X114918214Y-119709707D01*
X114918211Y-119709711D01*
X114830609Y-119840814D01*
X114830603Y-119840825D01*
X114770263Y-119986501D01*
X114770263Y-119986503D01*
X114739500Y-120141155D01*
X113840500Y-120141155D01*
X113840500Y-119600252D01*
X113828867Y-119541769D01*
X113784552Y-119475448D01*
X113746861Y-119450263D01*
X113718233Y-119431134D01*
X113718231Y-119431133D01*
X113718228Y-119431132D01*
X113718227Y-119431132D01*
X113659758Y-119419501D01*
X113659748Y-119419500D01*
X112420252Y-119419500D01*
X112420251Y-119419500D01*
X112420241Y-119419501D01*
X112361772Y-119431132D01*
X112361766Y-119431134D01*
X112295451Y-119475445D01*
X112295445Y-119475451D01*
X112251134Y-119541766D01*
X112251132Y-119541772D01*
X112239501Y-119600241D01*
X112239500Y-119600253D01*
X110500500Y-119600253D01*
X110500500Y-115157753D01*
X112804500Y-115157753D01*
X112804500Y-116367246D01*
X112804501Y-116367258D01*
X112816132Y-116425727D01*
X112816134Y-116425733D01*
X112838096Y-116458601D01*
X112860448Y-116492052D01*
X112926769Y-116536367D01*
X112971231Y-116545211D01*
X112985241Y-116547998D01*
X112985246Y-116547998D01*
X112985252Y-116548000D01*
X112985253Y-116548000D01*
X114194747Y-116548000D01*
X114194748Y-116548000D01*
X114253231Y-116536367D01*
X114319552Y-116492052D01*
X114363867Y-116425731D01*
X114375500Y-116367248D01*
X114375500Y-115157752D01*
X114363867Y-115099269D01*
X114319552Y-115032948D01*
X114303142Y-115021983D01*
X114253233Y-114988634D01*
X114253231Y-114988633D01*
X114253228Y-114988632D01*
X114253227Y-114988632D01*
X114194758Y-114977001D01*
X114194748Y-114977000D01*
X112985252Y-114977000D01*
X112985251Y-114977000D01*
X112985241Y-114977001D01*
X112926772Y-114988632D01*
X112926766Y-114988634D01*
X112860451Y-115032945D01*
X112860445Y-115032951D01*
X112816134Y-115099266D01*
X112816132Y-115099272D01*
X112804501Y-115157741D01*
X112804500Y-115157753D01*
X110500500Y-115157753D01*
X110500500Y-104025515D01*
X112099500Y-104025515D01*
X112099500Y-104214484D01*
X112129058Y-104401113D01*
X112187453Y-104580832D01*
X112246878Y-104697462D01*
X112273240Y-104749199D01*
X112384310Y-104902073D01*
X112517927Y-105035690D01*
X112670801Y-105146760D01*
X112839168Y-105232547D01*
X113018882Y-105290940D01*
X113018883Y-105290940D01*
X113018886Y-105290941D01*
X113205516Y-105320500D01*
X113205519Y-105320500D01*
X113394484Y-105320500D01*
X113581113Y-105290941D01*
X113581114Y-105290940D01*
X113581118Y-105290940D01*
X113760832Y-105232547D01*
X113929199Y-105146760D01*
X114082073Y-105035690D01*
X114215690Y-104902073D01*
X114326760Y-104749199D01*
X114412547Y-104580832D01*
X114470940Y-104401118D01*
X114471459Y-104397842D01*
X114500500Y-104214484D01*
X114500500Y-104025515D01*
X114470941Y-103838886D01*
X114470940Y-103838882D01*
X114412547Y-103659168D01*
X114326760Y-103490801D01*
X114215690Y-103337927D01*
X114082073Y-103204310D01*
X113929199Y-103093240D01*
X113929198Y-103093239D01*
X113929196Y-103093238D01*
X113760832Y-103007453D01*
X113581113Y-102949058D01*
X113394484Y-102919500D01*
X113394481Y-102919500D01*
X113205519Y-102919500D01*
X113205516Y-102919500D01*
X113018886Y-102949058D01*
X112839167Y-103007453D01*
X112670803Y-103093238D01*
X112517928Y-103204309D01*
X112384309Y-103337928D01*
X112273238Y-103490803D01*
X112187453Y-103659167D01*
X112129058Y-103838886D01*
X112099500Y-104025515D01*
X110500500Y-104025515D01*
X110500500Y-91025515D01*
X112099500Y-91025515D01*
X112099500Y-91214484D01*
X112129058Y-91401113D01*
X112187453Y-91580832D01*
X112260562Y-91724318D01*
X112273240Y-91749199D01*
X112384310Y-91902073D01*
X112517927Y-92035690D01*
X112670801Y-92146760D01*
X112839168Y-92232547D01*
X113018882Y-92290940D01*
X113018883Y-92290940D01*
X113018886Y-92290941D01*
X113205516Y-92320500D01*
X113205519Y-92320500D01*
X113394484Y-92320500D01*
X113581113Y-92290941D01*
X113581114Y-92290940D01*
X113581118Y-92290940D01*
X113760832Y-92232547D01*
X113929199Y-92146760D01*
X114082073Y-92035690D01*
X114215690Y-91902073D01*
X114326760Y-91749199D01*
X114412547Y-91580832D01*
X114470940Y-91401118D01*
X114470941Y-91401113D01*
X114500500Y-91214484D01*
X114500500Y-91025515D01*
X114470941Y-90838886D01*
X114470940Y-90838882D01*
X114412547Y-90659168D01*
X114326760Y-90490801D01*
X114215690Y-90337927D01*
X114082073Y-90204310D01*
X113929199Y-90093240D01*
X113929198Y-90093239D01*
X113929196Y-90093238D01*
X113760832Y-90007453D01*
X113581113Y-89949058D01*
X113394484Y-89919500D01*
X113394481Y-89919500D01*
X113205519Y-89919500D01*
X113205516Y-89919500D01*
X113018886Y-89949058D01*
X112839167Y-90007453D01*
X112670803Y-90093238D01*
X112517928Y-90204309D01*
X112384309Y-90337928D01*
X112273238Y-90490803D01*
X112187453Y-90659167D01*
X112129058Y-90838886D01*
X112099500Y-91025515D01*
X110500500Y-91025515D01*
X110500500Y-81735375D01*
X111000000Y-81735375D01*
X111000000Y-83134999D01*
X111000001Y-83135000D01*
X112755273Y-83135000D01*
X112750000Y-83161509D01*
X112750000Y-83358491D01*
X112755273Y-83385000D01*
X111000001Y-83385000D01*
X111000000Y-83385001D01*
X111000000Y-84784624D01*
X111014506Y-84857546D01*
X111014507Y-84857548D01*
X111069758Y-84940237D01*
X111069762Y-84940241D01*
X111152451Y-84995492D01*
X111152453Y-84995493D01*
X111225375Y-85009999D01*
X111225377Y-85010000D01*
X113624999Y-85010000D01*
X113625000Y-85009999D01*
X113625000Y-84254727D01*
X113651509Y-84260000D01*
X113848491Y-84260000D01*
X113875000Y-84254727D01*
X113875000Y-85009999D01*
X113875001Y-85010000D01*
X116274623Y-85010000D01*
X116274624Y-85009999D01*
X116347546Y-84995493D01*
X116347548Y-84995492D01*
X116430237Y-84940241D01*
X116430241Y-84940237D01*
X116485492Y-84857548D01*
X116485493Y-84857546D01*
X116499999Y-84784624D01*
X116500000Y-84784622D01*
X116500000Y-83385001D01*
X116499999Y-83385000D01*
X114744727Y-83385000D01*
X114750000Y-83358491D01*
X114750000Y-83161509D01*
X114744727Y-83135000D01*
X116499999Y-83135000D01*
X116500000Y-83134999D01*
X116500000Y-81735377D01*
X116499999Y-81735375D01*
X116485493Y-81662453D01*
X116485492Y-81662451D01*
X116430241Y-81579762D01*
X116430237Y-81579758D01*
X116347548Y-81524507D01*
X116347546Y-81524506D01*
X116274624Y-81510000D01*
X113875001Y-81510000D01*
X113875000Y-81510001D01*
X113875000Y-82265272D01*
X113848491Y-82260000D01*
X113651509Y-82260000D01*
X113625000Y-82265272D01*
X113625000Y-81510001D01*
X113624999Y-81510000D01*
X111225375Y-81510000D01*
X111152453Y-81524506D01*
X111152451Y-81524507D01*
X111069762Y-81579758D01*
X111069758Y-81579762D01*
X111014507Y-81662451D01*
X111014506Y-81662453D01*
X111000000Y-81735375D01*
X110500500Y-81735375D01*
X110500500Y-74740253D01*
X111049500Y-74740253D01*
X111049500Y-77779746D01*
X111049501Y-77779758D01*
X111061132Y-77838227D01*
X111061133Y-77838231D01*
X111105448Y-77904552D01*
X111171769Y-77948867D01*
X111216231Y-77957711D01*
X111230241Y-77960498D01*
X111230246Y-77960498D01*
X111230252Y-77960500D01*
X111230253Y-77960500D01*
X116269747Y-77960500D01*
X116269748Y-77960500D01*
X116328231Y-77948867D01*
X116394552Y-77904552D01*
X116438867Y-77838231D01*
X116450500Y-77779748D01*
X116450500Y-76864201D01*
X116469407Y-76806010D01*
X116518907Y-76770046D01*
X116580093Y-76770046D01*
X116619504Y-76794197D01*
X121798504Y-81973197D01*
X121826281Y-82027714D01*
X121827500Y-82043201D01*
X121827500Y-107045638D01*
X121808593Y-107103829D01*
X121759093Y-107139793D01*
X121697907Y-107139793D01*
X121673499Y-107127954D01*
X121605518Y-107082531D01*
X121453560Y-107019589D01*
X121292242Y-106987500D01*
X121127757Y-106987500D01*
X120966440Y-107019589D01*
X120966438Y-107019589D01*
X120814481Y-107082531D01*
X120713968Y-107149691D01*
X121040231Y-107475956D01*
X120973605Y-107514423D01*
X120901923Y-107586105D01*
X120863455Y-107652733D01*
X120537190Y-107326468D01*
X120470031Y-107426981D01*
X120407089Y-107578938D01*
X120407089Y-107578940D01*
X120375000Y-107740257D01*
X120375000Y-107904742D01*
X120407089Y-108066059D01*
X120407089Y-108066061D01*
X120470031Y-108218018D01*
X120537190Y-108318530D01*
X120863454Y-107992265D01*
X120901923Y-108058895D01*
X120973605Y-108130577D01*
X121040230Y-108169043D01*
X120713967Y-108495307D01*
X120814481Y-108562468D01*
X120966439Y-108625410D01*
X121127757Y-108657499D01*
X121127761Y-108657500D01*
X121292239Y-108657500D01*
X121292242Y-108657499D01*
X121453559Y-108625410D01*
X121453561Y-108625410D01*
X121605519Y-108562467D01*
X121673498Y-108517046D01*
X121732386Y-108500437D01*
X121789790Y-108521614D01*
X121823783Y-108572488D01*
X121827500Y-108599361D01*
X121827500Y-114537599D01*
X121808593Y-114595790D01*
X121798503Y-114607603D01*
X121443007Y-114963098D01*
X121388491Y-114990875D01*
X121353691Y-114990192D01*
X121287369Y-114977000D01*
X121287365Y-114977000D01*
X121132635Y-114977000D01*
X121132632Y-114977000D01*
X120980879Y-115007185D01*
X120837927Y-115066398D01*
X120837918Y-115066402D01*
X120709274Y-115152361D01*
X120599861Y-115261774D01*
X120513902Y-115390418D01*
X120513898Y-115390427D01*
X120454686Y-115533378D01*
X120435283Y-115630921D01*
X120405386Y-115684304D01*
X120349820Y-115709920D01*
X120289811Y-115697983D01*
X120268181Y-115681610D01*
X118631996Y-114045425D01*
X118604219Y-113990908D01*
X118603000Y-113975421D01*
X118603000Y-109955437D01*
X118602999Y-109955435D01*
X118582521Y-109879011D01*
X118582519Y-109879007D01*
X118542960Y-109810489D01*
X118487011Y-109754539D01*
X118487011Y-109754540D01*
X116902441Y-108169970D01*
X116874664Y-108115453D01*
X116880983Y-108062076D01*
X116885314Y-108051622D01*
X116915500Y-107899865D01*
X116915500Y-107745135D01*
X116915499Y-107745132D01*
X117884500Y-107745132D01*
X117884500Y-107899867D01*
X117914685Y-108051620D01*
X117973898Y-108194572D01*
X117973902Y-108194581D01*
X118045502Y-108301736D01*
X118059862Y-108323227D01*
X118169273Y-108432638D01*
X118211962Y-108461162D01*
X118297918Y-108518597D01*
X118297924Y-108518599D01*
X118297926Y-108518601D01*
X118440878Y-108577814D01*
X118592635Y-108608000D01*
X118592636Y-108608000D01*
X118747364Y-108608000D01*
X118747365Y-108608000D01*
X118899122Y-108577814D01*
X119042074Y-108518601D01*
X119042077Y-108518598D01*
X119042081Y-108518597D01*
X119097438Y-108481608D01*
X119170727Y-108432638D01*
X119280138Y-108323227D01*
X119337186Y-108237848D01*
X119366097Y-108194581D01*
X119366098Y-108194577D01*
X119366101Y-108194574D01*
X119425314Y-108051622D01*
X119455500Y-107899865D01*
X119455500Y-107745135D01*
X119425314Y-107593378D01*
X119366101Y-107450426D01*
X119366099Y-107450424D01*
X119366097Y-107450418D01*
X119308662Y-107364462D01*
X119280138Y-107321773D01*
X119170727Y-107212362D01*
X119149236Y-107198002D01*
X119042081Y-107126402D01*
X119042072Y-107126398D01*
X118899120Y-107067185D01*
X118747367Y-107037000D01*
X118747365Y-107037000D01*
X118592635Y-107037000D01*
X118592632Y-107037000D01*
X118440879Y-107067185D01*
X118297927Y-107126398D01*
X118297918Y-107126402D01*
X118169274Y-107212361D01*
X118059861Y-107321774D01*
X117973902Y-107450418D01*
X117973898Y-107450427D01*
X117914685Y-107593379D01*
X117884500Y-107745132D01*
X116915499Y-107745132D01*
X116885314Y-107593378D01*
X116826101Y-107450426D01*
X116826099Y-107450424D01*
X116826097Y-107450418D01*
X116768662Y-107364462D01*
X116740138Y-107321773D01*
X116630727Y-107212362D01*
X116609236Y-107198002D01*
X116502081Y-107126402D01*
X116502072Y-107126398D01*
X116359120Y-107067185D01*
X116207367Y-107037000D01*
X116207365Y-107037000D01*
X116052635Y-107037000D01*
X116052632Y-107037000D01*
X115900879Y-107067185D01*
X115757927Y-107126398D01*
X115757918Y-107126402D01*
X115629274Y-107212361D01*
X115519861Y-107321774D01*
X115433902Y-107450418D01*
X115433898Y-107450427D01*
X115374685Y-107593379D01*
X115344500Y-107745132D01*
X115344500Y-107899867D01*
X115374685Y-108051620D01*
X115433898Y-108194572D01*
X115433902Y-108194581D01*
X115505502Y-108301736D01*
X115519862Y-108323227D01*
X115629273Y-108432638D01*
X115671962Y-108461162D01*
X115757918Y-108518597D01*
X115757924Y-108518599D01*
X115757926Y-108518601D01*
X115900878Y-108577814D01*
X116052635Y-108608000D01*
X116052636Y-108608000D01*
X116207364Y-108608000D01*
X116207365Y-108608000D01*
X116359122Y-108577814D01*
X116369575Y-108573483D01*
X116430569Y-108568678D01*
X116477470Y-108594941D01*
X117973004Y-110090475D01*
X118000781Y-110144992D01*
X118002000Y-110160479D01*
X118002000Y-114180564D01*
X118022478Y-114256988D01*
X118022480Y-114256992D01*
X118062038Y-114325508D01*
X118062040Y-114325511D01*
X118117989Y-114381460D01*
X118117991Y-114381461D01*
X118122214Y-114385684D01*
X118123016Y-114386387D01*
X118562586Y-114825957D01*
X118590363Y-114880474D01*
X118580792Y-114940906D01*
X118537527Y-114984171D01*
X118511897Y-114993059D01*
X118440878Y-115007186D01*
X118297927Y-115066398D01*
X118297918Y-115066402D01*
X118169274Y-115152361D01*
X118059861Y-115261774D01*
X117973902Y-115390418D01*
X117973898Y-115390427D01*
X117933164Y-115488769D01*
X117893427Y-115535294D01*
X117833933Y-115549578D01*
X117777405Y-115526163D01*
X117745435Y-115473994D01*
X117742700Y-115450883D01*
X117742700Y-110257237D01*
X117742699Y-110257235D01*
X117722221Y-110180811D01*
X117722219Y-110180807D01*
X117682660Y-110112289D01*
X117626712Y-110056340D01*
X117167510Y-109597139D01*
X117098992Y-109557580D01*
X117098988Y-109557578D01*
X117022564Y-109537100D01*
X117022562Y-109537100D01*
X115770579Y-109537100D01*
X115712388Y-109518193D01*
X115700575Y-109508104D01*
X114362441Y-108169970D01*
X114334664Y-108115453D01*
X114340983Y-108062076D01*
X114345314Y-108051622D01*
X114375500Y-107899865D01*
X114375500Y-107745135D01*
X114345314Y-107593378D01*
X114286101Y-107450426D01*
X114286099Y-107450424D01*
X114286097Y-107450418D01*
X114228662Y-107364462D01*
X114200138Y-107321773D01*
X114090727Y-107212362D01*
X114069236Y-107198002D01*
X113962081Y-107126402D01*
X113962072Y-107126398D01*
X113819120Y-107067185D01*
X113667367Y-107037000D01*
X113667365Y-107037000D01*
X113512635Y-107037000D01*
X113512632Y-107037000D01*
X113360879Y-107067185D01*
X113217927Y-107126398D01*
X113217918Y-107126402D01*
X113089274Y-107212361D01*
X112979861Y-107321774D01*
X112893902Y-107450418D01*
X112893898Y-107450427D01*
X112834685Y-107593379D01*
X112804500Y-107745132D01*
X112804500Y-107899867D01*
X112834685Y-108051620D01*
X112893898Y-108194572D01*
X112893902Y-108194581D01*
X112965502Y-108301736D01*
X112979862Y-108323227D01*
X113089273Y-108432638D01*
X113131962Y-108461162D01*
X113217918Y-108518597D01*
X113217924Y-108518599D01*
X113217926Y-108518601D01*
X113360878Y-108577814D01*
X113512635Y-108608000D01*
X113512636Y-108608000D01*
X113667364Y-108608000D01*
X113667365Y-108608000D01*
X113819122Y-108577814D01*
X113829575Y-108573483D01*
X113890569Y-108568678D01*
X113937470Y-108594941D01*
X115420589Y-110078060D01*
X115420591Y-110078061D01*
X115420592Y-110078062D01*
X115420593Y-110078063D01*
X115489108Y-110117620D01*
X115489106Y-110117620D01*
X115489110Y-110117621D01*
X115489112Y-110117622D01*
X115565538Y-110138100D01*
X115644662Y-110138100D01*
X116380679Y-110138100D01*
X116438870Y-110157007D01*
X116474834Y-110206507D01*
X116474834Y-110267693D01*
X116450684Y-110307101D01*
X116440000Y-110317786D01*
X116439997Y-110317789D01*
X116439996Y-110317790D01*
X116374109Y-110431909D01*
X116367672Y-110455932D01*
X116340000Y-110559208D01*
X116340000Y-110690992D01*
X116370079Y-110803251D01*
X116374109Y-110818290D01*
X116439996Y-110932409D01*
X116439998Y-110932411D01*
X116440000Y-110932414D01*
X116511005Y-111003419D01*
X116538781Y-111057934D01*
X116540000Y-111073421D01*
X116540000Y-114886521D01*
X116537531Y-114894118D01*
X116538781Y-114902008D01*
X116528256Y-114922663D01*
X116521093Y-114944712D01*
X116511005Y-114956523D01*
X116477469Y-114990058D01*
X116422954Y-115017835D01*
X116369583Y-115011519D01*
X116362497Y-115008584D01*
X116359122Y-115007186D01*
X116359121Y-115007185D01*
X116359119Y-115007185D01*
X116207367Y-114977000D01*
X116207365Y-114977000D01*
X116052635Y-114977000D01*
X116052632Y-114977000D01*
X115900879Y-115007185D01*
X115757927Y-115066398D01*
X115757918Y-115066402D01*
X115629274Y-115152361D01*
X115519861Y-115261774D01*
X115433902Y-115390418D01*
X115433898Y-115390427D01*
X115374685Y-115533379D01*
X115344500Y-115685132D01*
X115344500Y-115839867D01*
X115374685Y-115991620D01*
X115433898Y-116134572D01*
X115433902Y-116134581D01*
X115505502Y-116241736D01*
X115519862Y-116263227D01*
X115629273Y-116372638D01*
X115671962Y-116401162D01*
X115757918Y-116458597D01*
X115757924Y-116458599D01*
X115757926Y-116458601D01*
X115900878Y-116517814D01*
X116052635Y-116548000D01*
X116052636Y-116548000D01*
X116207364Y-116548000D01*
X116207365Y-116548000D01*
X116359122Y-116517814D01*
X116502074Y-116458601D01*
X116502077Y-116458598D01*
X116502081Y-116458597D01*
X116545348Y-116429686D01*
X116630727Y-116372638D01*
X116740138Y-116263227D01*
X116822083Y-116140588D01*
X116826097Y-116134581D01*
X116826098Y-116134577D01*
X116826101Y-116134574D01*
X116885314Y-115991622D01*
X116915500Y-115839865D01*
X116915500Y-115685135D01*
X116885314Y-115533378D01*
X116880980Y-115522917D01*
X116876180Y-115461922D01*
X116902439Y-115415030D01*
X116972699Y-115344771D01*
X117027213Y-115316996D01*
X117087645Y-115326567D01*
X117130910Y-115369832D01*
X117141700Y-115414777D01*
X117141700Y-118673964D01*
X117162178Y-118750386D01*
X117162179Y-118750389D01*
X117186786Y-118793010D01*
X117186787Y-118793012D01*
X117186788Y-118793012D01*
X117200583Y-118816908D01*
X117201740Y-118818911D01*
X121292340Y-122909511D01*
X121292339Y-122909511D01*
X121348289Y-122965460D01*
X121416807Y-123005019D01*
X121416811Y-123005021D01*
X121493235Y-123025499D01*
X121493237Y-123025500D01*
X121493238Y-123025500D01*
X143902063Y-123025500D01*
X143902063Y-123025499D01*
X143978489Y-123005021D01*
X144047011Y-122965460D01*
X144102960Y-122909511D01*
X145956709Y-121055761D01*
X148098000Y-121055761D01*
X148098000Y-121214238D01*
X148128916Y-121369663D01*
X148128916Y-121369665D01*
X148189559Y-121516071D01*
X148189560Y-121516073D01*
X148189561Y-121516074D01*
X148277604Y-121647839D01*
X148389661Y-121759896D01*
X148521426Y-121847939D01*
X148667836Y-121908584D01*
X148823264Y-121939500D01*
X148823265Y-121939500D01*
X148981735Y-121939500D01*
X148981736Y-121939500D01*
X149137164Y-121908584D01*
X149283574Y-121847939D01*
X149415339Y-121759896D01*
X149527396Y-121647839D01*
X149615439Y-121516074D01*
X149676084Y-121369664D01*
X149707000Y-121214236D01*
X149707000Y-121055764D01*
X149676084Y-120900336D01*
X149615439Y-120753926D01*
X149527396Y-120622161D01*
X149415339Y-120510104D01*
X149346868Y-120464353D01*
X152024500Y-120464353D01*
X152024500Y-122003846D01*
X152024501Y-122003858D01*
X152036132Y-122062327D01*
X152036133Y-122062331D01*
X152080448Y-122128652D01*
X152146769Y-122172967D01*
X152191231Y-122181811D01*
X152205241Y-122184598D01*
X152205246Y-122184598D01*
X152205252Y-122184600D01*
X152205253Y-122184600D01*
X153744747Y-122184600D01*
X153744748Y-122184600D01*
X153803231Y-122172967D01*
X153869552Y-122128652D01*
X153913867Y-122062331D01*
X153925500Y-122003848D01*
X153925500Y-120464353D01*
X161574500Y-120464353D01*
X161574500Y-122003846D01*
X161574501Y-122003858D01*
X161586132Y-122062327D01*
X161586133Y-122062331D01*
X161630448Y-122128652D01*
X161696769Y-122172967D01*
X161741231Y-122181811D01*
X161755241Y-122184598D01*
X161755246Y-122184598D01*
X161755252Y-122184600D01*
X161755253Y-122184600D01*
X163294747Y-122184600D01*
X163294748Y-122184600D01*
X163353231Y-122172967D01*
X163419552Y-122128652D01*
X163463867Y-122062331D01*
X163475500Y-122003848D01*
X163475500Y-120464352D01*
X163463867Y-120405869D01*
X163419552Y-120339548D01*
X163406011Y-120330500D01*
X163353233Y-120295234D01*
X163353231Y-120295233D01*
X163353228Y-120295232D01*
X163353227Y-120295232D01*
X163294758Y-120283601D01*
X163294748Y-120283600D01*
X161755252Y-120283600D01*
X161755251Y-120283600D01*
X161755241Y-120283601D01*
X161696772Y-120295232D01*
X161696766Y-120295234D01*
X161630451Y-120339545D01*
X161630445Y-120339551D01*
X161586134Y-120405866D01*
X161586132Y-120405872D01*
X161574501Y-120464341D01*
X161574500Y-120464353D01*
X153925500Y-120464353D01*
X153925500Y-120464352D01*
X153913867Y-120405869D01*
X153869552Y-120339548D01*
X153856011Y-120330500D01*
X153803233Y-120295234D01*
X153803231Y-120295233D01*
X153803228Y-120295232D01*
X153803227Y-120295232D01*
X153744758Y-120283601D01*
X153744748Y-120283600D01*
X152205252Y-120283600D01*
X152205251Y-120283600D01*
X152205241Y-120283601D01*
X152146772Y-120295232D01*
X152146766Y-120295234D01*
X152080451Y-120339545D01*
X152080445Y-120339551D01*
X152036134Y-120405866D01*
X152036132Y-120405872D01*
X152024501Y-120464341D01*
X152024500Y-120464353D01*
X149346868Y-120464353D01*
X149283574Y-120422061D01*
X149283573Y-120422060D01*
X149283571Y-120422059D01*
X149137164Y-120361416D01*
X148981738Y-120330500D01*
X148981736Y-120330500D01*
X148823264Y-120330500D01*
X148823261Y-120330500D01*
X148667836Y-120361416D01*
X148667834Y-120361416D01*
X148521428Y-120422059D01*
X148389661Y-120510104D01*
X148389657Y-120510107D01*
X148277607Y-120622157D01*
X148277604Y-120622161D01*
X148189559Y-120753928D01*
X148128916Y-120900334D01*
X148128916Y-120900336D01*
X148098000Y-121055761D01*
X145956709Y-121055761D01*
X148540488Y-118471981D01*
X148595003Y-118444206D01*
X148648374Y-118450522D01*
X148667836Y-118458584D01*
X148823264Y-118489500D01*
X148823265Y-118489500D01*
X148981735Y-118489500D01*
X148981736Y-118489500D01*
X149137164Y-118458584D01*
X149283574Y-118397939D01*
X149415339Y-118309896D01*
X149527396Y-118197839D01*
X149615439Y-118066074D01*
X149676084Y-117919664D01*
X149707000Y-117764236D01*
X149707000Y-117605764D01*
X149676084Y-117450336D01*
X149615439Y-117303926D01*
X149527396Y-117172161D01*
X149415339Y-117060104D01*
X149283574Y-116972061D01*
X149283573Y-116972060D01*
X149283571Y-116972059D01*
X149137164Y-116911416D01*
X148981738Y-116880500D01*
X148981736Y-116880500D01*
X148823264Y-116880500D01*
X148823261Y-116880500D01*
X148667836Y-116911416D01*
X148667834Y-116911416D01*
X148521428Y-116972059D01*
X148389661Y-117060104D01*
X148389657Y-117060107D01*
X148277607Y-117172157D01*
X148277604Y-117172161D01*
X148189559Y-117303928D01*
X148128916Y-117450334D01*
X148128916Y-117450336D01*
X148098000Y-117605761D01*
X148098000Y-117764238D01*
X148128916Y-117919666D01*
X148128918Y-117919672D01*
X148136975Y-117939123D01*
X148141775Y-118000120D01*
X148115515Y-118047012D01*
X143767025Y-122395504D01*
X143712508Y-122423281D01*
X143697021Y-122424500D01*
X138134179Y-122424500D01*
X138075988Y-122405593D01*
X138040024Y-122356093D01*
X138040024Y-122294907D01*
X138064175Y-122255496D01*
X139263910Y-121055761D01*
X140798000Y-121055761D01*
X140798000Y-121214238D01*
X140828916Y-121369663D01*
X140828916Y-121369665D01*
X140889559Y-121516071D01*
X140889560Y-121516073D01*
X140889561Y-121516074D01*
X140977604Y-121647839D01*
X141089661Y-121759896D01*
X141221426Y-121847939D01*
X141367836Y-121908584D01*
X141523264Y-121939500D01*
X141523265Y-121939500D01*
X141681735Y-121939500D01*
X141681736Y-121939500D01*
X141837164Y-121908584D01*
X141983574Y-121847939D01*
X142115339Y-121759896D01*
X142227396Y-121647839D01*
X142315439Y-121516074D01*
X142376084Y-121369664D01*
X142407000Y-121214236D01*
X142407000Y-121196478D01*
X142425907Y-121138287D01*
X142435990Y-121126480D01*
X148540488Y-115021981D01*
X148595003Y-114994206D01*
X148648374Y-115000522D01*
X148667836Y-115008584D01*
X148823264Y-115039500D01*
X148823265Y-115039500D01*
X148981735Y-115039500D01*
X148981736Y-115039500D01*
X149137164Y-115008584D01*
X149283574Y-114947939D01*
X149415339Y-114859896D01*
X149527396Y-114747839D01*
X149615439Y-114616074D01*
X149676084Y-114469664D01*
X149707000Y-114314236D01*
X149707000Y-114155764D01*
X149676084Y-114000336D01*
X149615439Y-113853926D01*
X149527396Y-113722161D01*
X149415339Y-113610104D01*
X149283574Y-113522061D01*
X149283573Y-113522060D01*
X149283571Y-113522059D01*
X149137164Y-113461416D01*
X148981738Y-113430500D01*
X148981736Y-113430500D01*
X148823264Y-113430500D01*
X148823261Y-113430500D01*
X148667836Y-113461416D01*
X148667834Y-113461416D01*
X148521428Y-113522059D01*
X148389661Y-113610104D01*
X148389657Y-113610107D01*
X148277607Y-113722157D01*
X148277604Y-113722161D01*
X148189559Y-113853928D01*
X148128916Y-114000334D01*
X148128916Y-114000336D01*
X148098000Y-114155761D01*
X148098000Y-114314238D01*
X148128916Y-114469666D01*
X148128918Y-114469672D01*
X148136975Y-114489123D01*
X148141775Y-114550120D01*
X148115515Y-114597012D01*
X142224993Y-120487535D01*
X142170476Y-120515312D01*
X142110044Y-120505741D01*
X142099987Y-120499846D01*
X141983571Y-120422059D01*
X141837164Y-120361416D01*
X141681738Y-120330500D01*
X141681736Y-120330500D01*
X141523264Y-120330500D01*
X141523261Y-120330500D01*
X141367836Y-120361416D01*
X141367834Y-120361416D01*
X141221428Y-120422059D01*
X141089661Y-120510104D01*
X141089657Y-120510107D01*
X140977607Y-120622157D01*
X140977604Y-120622161D01*
X140889559Y-120753928D01*
X140828916Y-120900334D01*
X140828916Y-120900336D01*
X140798000Y-121055761D01*
X139263910Y-121055761D01*
X139338774Y-120980897D01*
X139724672Y-120594999D01*
X140937260Y-119382411D01*
X140976822Y-119313888D01*
X140997300Y-119237462D01*
X140997300Y-119158338D01*
X140997300Y-118433398D01*
X141016207Y-118375207D01*
X141065707Y-118339243D01*
X141126893Y-118339243D01*
X141151299Y-118351081D01*
X141221426Y-118397939D01*
X141367836Y-118458584D01*
X141523264Y-118489500D01*
X141523265Y-118489500D01*
X141681735Y-118489500D01*
X141681736Y-118489500D01*
X141837164Y-118458584D01*
X141983574Y-118397939D01*
X142115339Y-118309896D01*
X142227396Y-118197839D01*
X142315439Y-118066074D01*
X142376084Y-117919664D01*
X142407000Y-117764236D01*
X142407000Y-117746478D01*
X142425907Y-117688287D01*
X142435990Y-117676480D01*
X148540488Y-111571981D01*
X148595003Y-111544206D01*
X148648374Y-111550522D01*
X148667836Y-111558584D01*
X148823264Y-111589500D01*
X148823265Y-111589500D01*
X148981735Y-111589500D01*
X148981736Y-111589500D01*
X149137164Y-111558584D01*
X149283574Y-111497939D01*
X149415339Y-111409896D01*
X149527396Y-111297839D01*
X149615439Y-111166074D01*
X149676084Y-111019664D01*
X149707000Y-110864236D01*
X149707000Y-110705764D01*
X149676084Y-110550336D01*
X149615439Y-110403926D01*
X149527396Y-110272161D01*
X149415339Y-110160104D01*
X149283574Y-110072061D01*
X149283573Y-110072060D01*
X149283571Y-110072059D01*
X149137164Y-110011416D01*
X148981738Y-109980500D01*
X148981736Y-109980500D01*
X148823264Y-109980500D01*
X148823261Y-109980500D01*
X148667836Y-110011416D01*
X148667834Y-110011416D01*
X148521428Y-110072059D01*
X148389661Y-110160104D01*
X148389657Y-110160107D01*
X148277607Y-110272157D01*
X148277604Y-110272161D01*
X148189559Y-110403928D01*
X148128916Y-110550334D01*
X148128916Y-110550336D01*
X148098000Y-110705761D01*
X148098000Y-110864238D01*
X148128916Y-111019666D01*
X148128918Y-111019672D01*
X148136975Y-111039123D01*
X148141775Y-111100120D01*
X148115515Y-111147012D01*
X142224993Y-117037535D01*
X142170476Y-117065312D01*
X142110044Y-117055741D01*
X142099987Y-117049846D01*
X141983571Y-116972059D01*
X141837164Y-116911416D01*
X141681738Y-116880500D01*
X141681736Y-116880500D01*
X141523264Y-116880500D01*
X141523261Y-116880500D01*
X141367836Y-116911416D01*
X141367834Y-116911416D01*
X141221429Y-116972059D01*
X141151301Y-117018917D01*
X141092413Y-117035525D01*
X141035009Y-117014347D01*
X141001017Y-116963473D01*
X140997300Y-116936601D01*
X140997300Y-114983398D01*
X141016207Y-114925207D01*
X141065707Y-114889243D01*
X141126893Y-114889243D01*
X141151299Y-114901081D01*
X141221426Y-114947939D01*
X141367836Y-115008584D01*
X141523264Y-115039500D01*
X141523265Y-115039500D01*
X141681735Y-115039500D01*
X141681736Y-115039500D01*
X141837164Y-115008584D01*
X141983574Y-114947939D01*
X142115339Y-114859896D01*
X142227396Y-114747839D01*
X142315439Y-114616074D01*
X142376084Y-114469664D01*
X142407000Y-114314236D01*
X142407000Y-114155764D01*
X142376084Y-114000336D01*
X142315439Y-113853926D01*
X142227396Y-113722161D01*
X142115339Y-113610104D01*
X141983574Y-113522061D01*
X141964112Y-113513999D01*
X141917588Y-113474262D01*
X141903000Y-113422536D01*
X141903000Y-113114678D01*
X141921907Y-113056487D01*
X141931990Y-113044680D01*
X147960865Y-107015805D01*
X148015378Y-106988031D01*
X148075810Y-106997602D01*
X148119075Y-107040867D01*
X148128646Y-107101299D01*
X148127963Y-107105126D01*
X148098000Y-107255761D01*
X148098000Y-107414238D01*
X148128916Y-107569663D01*
X148128916Y-107569665D01*
X148189559Y-107716071D01*
X148189560Y-107716073D01*
X148189561Y-107716074D01*
X148277604Y-107847839D01*
X148389661Y-107959896D01*
X148521426Y-108047939D01*
X148521427Y-108047939D01*
X148521428Y-108047940D01*
X148547876Y-108058895D01*
X148667836Y-108108584D01*
X148823264Y-108139500D01*
X148823265Y-108139500D01*
X148981735Y-108139500D01*
X148981736Y-108139500D01*
X149137164Y-108108584D01*
X149283574Y-108047939D01*
X149415339Y-107959896D01*
X149527396Y-107847839D01*
X149615439Y-107716074D01*
X149676084Y-107569664D01*
X149707000Y-107414236D01*
X149707000Y-107255764D01*
X149676084Y-107100336D01*
X149615439Y-106953926D01*
X149527396Y-106822161D01*
X149415339Y-106710104D01*
X149283574Y-106622061D01*
X149283573Y-106622060D01*
X149283571Y-106622059D01*
X149137164Y-106561416D01*
X148981738Y-106530500D01*
X148981736Y-106530500D01*
X148823264Y-106530500D01*
X148823261Y-106530500D01*
X148672626Y-106560463D01*
X148611864Y-106553271D01*
X148566935Y-106511738D01*
X148554998Y-106451728D01*
X148580614Y-106396163D01*
X148583258Y-106393412D01*
X149142960Y-105833711D01*
X149182521Y-105765189D01*
X149203000Y-105688762D01*
X149203000Y-104697462D01*
X149221907Y-104639271D01*
X149264113Y-104605999D01*
X149283574Y-104597939D01*
X149415339Y-104509896D01*
X149527396Y-104397839D01*
X149615439Y-104266074D01*
X149676084Y-104119664D01*
X149707000Y-103964236D01*
X149707000Y-103805764D01*
X149676084Y-103650336D01*
X149615439Y-103503926D01*
X149527396Y-103372161D01*
X149415339Y-103260104D01*
X149283574Y-103172061D01*
X149283573Y-103172060D01*
X149283571Y-103172059D01*
X149137164Y-103111416D01*
X148981738Y-103080500D01*
X148981736Y-103080500D01*
X148823264Y-103080500D01*
X148823261Y-103080500D01*
X148667836Y-103111416D01*
X148667834Y-103111416D01*
X148521428Y-103172059D01*
X148389661Y-103260104D01*
X148389657Y-103260107D01*
X148277607Y-103372157D01*
X148277604Y-103372161D01*
X148189559Y-103503928D01*
X148128916Y-103650334D01*
X148128916Y-103650336D01*
X148098000Y-103805761D01*
X148098000Y-103805764D01*
X148098000Y-103964236D01*
X148124312Y-104096520D01*
X148128916Y-104119663D01*
X148128916Y-104119665D01*
X148189559Y-104266071D01*
X148189560Y-104266073D01*
X148189561Y-104266074D01*
X148277604Y-104397839D01*
X148277607Y-104397842D01*
X148389661Y-104509896D01*
X148521418Y-104597934D01*
X148521420Y-104597935D01*
X148521426Y-104597939D01*
X148540885Y-104605999D01*
X148587409Y-104645731D01*
X148602000Y-104697462D01*
X148602000Y-105483721D01*
X148583093Y-105541912D01*
X148573004Y-105553725D01*
X147847204Y-106279525D01*
X147792687Y-106307302D01*
X147732255Y-106297731D01*
X147688990Y-106254466D01*
X147678200Y-106209521D01*
X147678200Y-102125278D01*
X147697107Y-102067087D01*
X147707190Y-102055280D01*
X148540488Y-101221981D01*
X148595003Y-101194206D01*
X148648374Y-101200522D01*
X148667836Y-101208584D01*
X148823264Y-101239500D01*
X148823265Y-101239500D01*
X148981735Y-101239500D01*
X148981736Y-101239500D01*
X149137164Y-101208584D01*
X149283574Y-101147939D01*
X149415339Y-101059896D01*
X149527396Y-100947839D01*
X149615439Y-100816074D01*
X149676084Y-100669664D01*
X149707000Y-100514236D01*
X149707000Y-100355764D01*
X149676084Y-100200336D01*
X149615439Y-100053926D01*
X149527396Y-99922161D01*
X149415339Y-99810104D01*
X149283574Y-99722061D01*
X149283573Y-99722060D01*
X149283571Y-99722059D01*
X149137164Y-99661416D01*
X148981738Y-99630500D01*
X148981736Y-99630500D01*
X148823264Y-99630500D01*
X148823261Y-99630500D01*
X148667836Y-99661416D01*
X148667834Y-99661416D01*
X148521428Y-99722059D01*
X148389661Y-99810104D01*
X148389657Y-99810107D01*
X148277607Y-99922157D01*
X148277604Y-99922161D01*
X148189559Y-100053928D01*
X148128916Y-100200334D01*
X148128916Y-100200336D01*
X148098000Y-100355761D01*
X148098000Y-100514238D01*
X148128916Y-100669666D01*
X148128918Y-100669672D01*
X148136975Y-100689123D01*
X148141775Y-100750120D01*
X148115515Y-100797012D01*
X147245604Y-101666924D01*
X147191087Y-101694701D01*
X147130655Y-101685130D01*
X147087390Y-101641865D01*
X147076600Y-101596920D01*
X147076600Y-99276878D01*
X147095507Y-99218687D01*
X147105590Y-99206880D01*
X148396954Y-97915515D01*
X152549500Y-97915515D01*
X152549500Y-98104484D01*
X152579058Y-98291113D01*
X152579060Y-98291118D01*
X152637453Y-98470832D01*
X152723240Y-98639199D01*
X152834310Y-98792073D01*
X152967927Y-98925690D01*
X153120801Y-99036760D01*
X153289168Y-99122547D01*
X153468882Y-99180940D01*
X153468883Y-99180940D01*
X153468886Y-99180941D01*
X153655516Y-99210500D01*
X153655519Y-99210500D01*
X153844484Y-99210500D01*
X154031113Y-99180941D01*
X154031114Y-99180940D01*
X154031118Y-99180940D01*
X154210832Y-99122547D01*
X154379199Y-99036760D01*
X154532073Y-98925690D01*
X154665690Y-98792073D01*
X154776760Y-98639199D01*
X154862547Y-98470832D01*
X154920940Y-98291118D01*
X154927510Y-98249635D01*
X154950500Y-98104484D01*
X154950500Y-97915515D01*
X155216167Y-97915515D01*
X155216167Y-98104484D01*
X155245725Y-98291113D01*
X155245727Y-98291118D01*
X155304120Y-98470832D01*
X155389907Y-98639199D01*
X155500977Y-98792073D01*
X155634594Y-98925690D01*
X155787468Y-99036760D01*
X155955835Y-99122547D01*
X156135549Y-99180940D01*
X156135550Y-99180940D01*
X156135553Y-99180941D01*
X156322183Y-99210500D01*
X156322186Y-99210500D01*
X156511151Y-99210500D01*
X156697780Y-99180941D01*
X156697781Y-99180940D01*
X156697785Y-99180940D01*
X156877499Y-99122547D01*
X157045866Y-99036760D01*
X157198740Y-98925690D01*
X157332357Y-98792073D01*
X157443427Y-98639199D01*
X157529214Y-98470832D01*
X157587607Y-98291118D01*
X157594177Y-98249635D01*
X157617167Y-98104484D01*
X157617167Y-97915515D01*
X157882833Y-97915515D01*
X157882833Y-98104484D01*
X157912391Y-98291113D01*
X157912393Y-98291118D01*
X157970786Y-98470832D01*
X158056573Y-98639199D01*
X158167643Y-98792073D01*
X158301260Y-98925690D01*
X158454134Y-99036760D01*
X158622501Y-99122547D01*
X158802215Y-99180940D01*
X158802216Y-99180940D01*
X158802219Y-99180941D01*
X158988849Y-99210500D01*
X158988852Y-99210500D01*
X159177817Y-99210500D01*
X159364446Y-99180941D01*
X159364447Y-99180940D01*
X159364451Y-99180940D01*
X159544165Y-99122547D01*
X159712532Y-99036760D01*
X159865406Y-98925690D01*
X159999023Y-98792073D01*
X160110093Y-98639199D01*
X160195880Y-98470832D01*
X160254273Y-98291118D01*
X160260843Y-98249635D01*
X160283833Y-98104484D01*
X160283833Y-97915515D01*
X160254274Y-97728886D01*
X160254273Y-97728882D01*
X160195880Y-97549168D01*
X160110093Y-97380801D01*
X159999023Y-97227927D01*
X159865406Y-97094310D01*
X159712532Y-96983240D01*
X159712531Y-96983239D01*
X159712529Y-96983238D01*
X159544165Y-96897453D01*
X159364446Y-96839058D01*
X159177817Y-96809500D01*
X159177814Y-96809500D01*
X158988852Y-96809500D01*
X158988849Y-96809500D01*
X158802219Y-96839058D01*
X158622500Y-96897453D01*
X158454136Y-96983238D01*
X158301261Y-97094309D01*
X158167642Y-97227928D01*
X158056571Y-97380803D01*
X157970786Y-97549167D01*
X157912391Y-97728886D01*
X157882833Y-97915515D01*
X157617167Y-97915515D01*
X157587608Y-97728886D01*
X157587607Y-97728882D01*
X157529214Y-97549168D01*
X157443427Y-97380801D01*
X157332357Y-97227927D01*
X157198740Y-97094310D01*
X157045866Y-96983240D01*
X157045865Y-96983239D01*
X157045863Y-96983238D01*
X156877499Y-96897453D01*
X156697780Y-96839058D01*
X156511151Y-96809500D01*
X156511148Y-96809500D01*
X156322186Y-96809500D01*
X156322183Y-96809500D01*
X156135553Y-96839058D01*
X155955834Y-96897453D01*
X155787470Y-96983238D01*
X155634595Y-97094309D01*
X155500976Y-97227928D01*
X155389905Y-97380803D01*
X155304120Y-97549167D01*
X155245725Y-97728886D01*
X155216167Y-97915515D01*
X154950500Y-97915515D01*
X154920941Y-97728886D01*
X154920940Y-97728882D01*
X154862547Y-97549168D01*
X154776760Y-97380801D01*
X154665690Y-97227927D01*
X154532073Y-97094310D01*
X154379199Y-96983240D01*
X154379198Y-96983239D01*
X154379196Y-96983238D01*
X154210832Y-96897453D01*
X154031113Y-96839058D01*
X153844484Y-96809500D01*
X153844481Y-96809500D01*
X153655519Y-96809500D01*
X153655516Y-96809500D01*
X153468886Y-96839058D01*
X153289167Y-96897453D01*
X153120803Y-96983238D01*
X152967928Y-97094309D01*
X152834309Y-97227928D01*
X152723238Y-97380803D01*
X152637453Y-97549167D01*
X152579058Y-97728886D01*
X152549500Y-97915515D01*
X148396954Y-97915515D01*
X148540488Y-97771981D01*
X148595003Y-97744206D01*
X148648374Y-97750522D01*
X148667836Y-97758584D01*
X148823264Y-97789500D01*
X148823265Y-97789500D01*
X148981735Y-97789500D01*
X148981736Y-97789500D01*
X149137164Y-97758584D01*
X149283574Y-97697939D01*
X149415339Y-97609896D01*
X149527396Y-97497839D01*
X149615439Y-97366074D01*
X149676084Y-97219664D01*
X149707000Y-97064236D01*
X149707000Y-96905764D01*
X149676084Y-96750336D01*
X149615439Y-96603926D01*
X149527396Y-96472161D01*
X149415339Y-96360104D01*
X149283574Y-96272061D01*
X149283573Y-96272060D01*
X149283571Y-96272059D01*
X149137164Y-96211416D01*
X148981738Y-96180500D01*
X148981736Y-96180500D01*
X148823264Y-96180500D01*
X148823261Y-96180500D01*
X148667836Y-96211416D01*
X148667834Y-96211416D01*
X148521428Y-96272059D01*
X148389661Y-96360104D01*
X148389657Y-96360107D01*
X148277607Y-96472157D01*
X148277604Y-96472161D01*
X148189559Y-96603928D01*
X148128916Y-96750334D01*
X148128916Y-96750336D01*
X148098000Y-96905761D01*
X148098000Y-97064238D01*
X148128916Y-97219666D01*
X148128918Y-97219672D01*
X148136975Y-97239123D01*
X148141775Y-97300120D01*
X148115515Y-97347012D01*
X146591589Y-98870940D01*
X146591588Y-98870939D01*
X146535639Y-98926889D01*
X146496080Y-98995407D01*
X146496078Y-98995411D01*
X146475600Y-99071835D01*
X146475600Y-105445920D01*
X146456693Y-105504111D01*
X146446604Y-105515924D01*
X141964512Y-109998015D01*
X141909995Y-110025792D01*
X141856623Y-110019475D01*
X141837172Y-110011418D01*
X141837166Y-110011416D01*
X141681738Y-109980500D01*
X141681736Y-109980500D01*
X141523264Y-109980500D01*
X141523261Y-109980500D01*
X141367836Y-110011416D01*
X141367834Y-110011416D01*
X141221428Y-110072059D01*
X141089661Y-110160104D01*
X141089657Y-110160107D01*
X140977607Y-110272157D01*
X140977604Y-110272161D01*
X140889559Y-110403928D01*
X140828916Y-110550334D01*
X140828916Y-110550336D01*
X140798000Y-110705761D01*
X140798000Y-110864238D01*
X140828916Y-111019663D01*
X140828916Y-111019665D01*
X140889559Y-111166071D01*
X140889560Y-111166073D01*
X140889561Y-111166074D01*
X140977604Y-111297839D01*
X141089661Y-111409896D01*
X141221426Y-111497939D01*
X141367836Y-111558584D01*
X141450592Y-111575045D01*
X141503975Y-111604940D01*
X141529592Y-111660505D01*
X141517656Y-111720515D01*
X141501282Y-111742146D01*
X140512289Y-112731140D01*
X140512288Y-112731139D01*
X140456339Y-112787089D01*
X140416780Y-112855607D01*
X140416778Y-112855611D01*
X140396300Y-112932035D01*
X140396300Y-119032420D01*
X140377393Y-119090611D01*
X140367304Y-119102424D01*
X138777673Y-120692054D01*
X138723156Y-120719831D01*
X138662724Y-120710260D01*
X138619459Y-120666995D01*
X138611538Y-120639900D01*
X138610449Y-120640117D01*
X138593249Y-120553647D01*
X138576470Y-120469293D01*
X138557618Y-120423781D01*
X138552817Y-120362784D01*
X138579076Y-120315893D01*
X140101960Y-118793011D01*
X140110661Y-118777940D01*
X140141521Y-118724489D01*
X140162000Y-118648062D01*
X140162000Y-103805761D01*
X140798000Y-103805761D01*
X140798000Y-103805764D01*
X140798000Y-103964236D01*
X140824312Y-104096520D01*
X140828916Y-104119663D01*
X140828916Y-104119665D01*
X140889559Y-104266071D01*
X140889560Y-104266073D01*
X140889561Y-104266074D01*
X140977604Y-104397839D01*
X140977607Y-104397842D01*
X141089661Y-104509896D01*
X141221418Y-104597934D01*
X141221420Y-104597935D01*
X141221426Y-104597939D01*
X141240885Y-104605999D01*
X141287409Y-104645731D01*
X141302000Y-104697462D01*
X141302000Y-106522536D01*
X141283093Y-106580727D01*
X141240887Y-106614000D01*
X141221425Y-106622061D01*
X141089661Y-106710104D01*
X141089657Y-106710107D01*
X140977607Y-106822157D01*
X140977604Y-106822161D01*
X140889559Y-106953928D01*
X140828916Y-107100334D01*
X140828916Y-107100336D01*
X140798000Y-107255761D01*
X140798000Y-107414238D01*
X140828916Y-107569663D01*
X140828916Y-107569665D01*
X140889559Y-107716071D01*
X140889560Y-107716073D01*
X140889561Y-107716074D01*
X140977604Y-107847839D01*
X141089661Y-107959896D01*
X141221426Y-108047939D01*
X141221427Y-108047939D01*
X141221428Y-108047940D01*
X141247876Y-108058895D01*
X141367836Y-108108584D01*
X141523264Y-108139500D01*
X141523265Y-108139500D01*
X141681735Y-108139500D01*
X141681736Y-108139500D01*
X141837164Y-108108584D01*
X141983574Y-108047939D01*
X142115339Y-107959896D01*
X142227396Y-107847839D01*
X142315439Y-107716074D01*
X142376084Y-107569664D01*
X142407000Y-107414236D01*
X142407000Y-107255764D01*
X142376084Y-107100336D01*
X142315439Y-106953926D01*
X142227396Y-106822161D01*
X142115339Y-106710104D01*
X141983574Y-106622061D01*
X141964112Y-106613999D01*
X141917588Y-106574262D01*
X141903000Y-106522536D01*
X141903000Y-104697462D01*
X141921907Y-104639271D01*
X141964113Y-104605999D01*
X141983574Y-104597939D01*
X142115339Y-104509896D01*
X142227396Y-104397839D01*
X142315439Y-104266074D01*
X142376084Y-104119664D01*
X142407000Y-103964236D01*
X142407000Y-103805764D01*
X142376084Y-103650336D01*
X142368022Y-103630874D01*
X142363222Y-103569879D01*
X142389481Y-103522988D01*
X144388760Y-101523711D01*
X144416597Y-101475495D01*
X144428321Y-101455189D01*
X144448800Y-101378762D01*
X144448800Y-98454678D01*
X144467707Y-98396487D01*
X144477790Y-98384680D01*
X148540488Y-94321981D01*
X148595003Y-94294206D01*
X148648374Y-94300522D01*
X148667836Y-94308584D01*
X148823264Y-94339500D01*
X148823265Y-94339500D01*
X148981735Y-94339500D01*
X148981736Y-94339500D01*
X149137164Y-94308584D01*
X149283574Y-94247939D01*
X149415339Y-94159896D01*
X149527396Y-94047839D01*
X149615439Y-93916074D01*
X149676084Y-93769664D01*
X149707000Y-93614236D01*
X149707000Y-93455764D01*
X149676084Y-93300336D01*
X149615439Y-93153926D01*
X149527396Y-93022161D01*
X149415339Y-92910104D01*
X149283574Y-92822061D01*
X149283573Y-92822060D01*
X149283571Y-92822059D01*
X149137164Y-92761416D01*
X148981738Y-92730500D01*
X148981736Y-92730500D01*
X148823264Y-92730500D01*
X148823261Y-92730500D01*
X148667836Y-92761416D01*
X148667834Y-92761416D01*
X148521428Y-92822059D01*
X148389661Y-92910104D01*
X148389657Y-92910107D01*
X148277607Y-93022157D01*
X148277604Y-93022161D01*
X148189559Y-93153928D01*
X148128916Y-93300334D01*
X148128916Y-93300336D01*
X148098000Y-93455761D01*
X148098000Y-93614238D01*
X148128916Y-93769666D01*
X148128918Y-93769672D01*
X148136975Y-93789123D01*
X148141775Y-93850120D01*
X148115515Y-93897012D01*
X143963789Y-98048740D01*
X143963788Y-98048739D01*
X143907839Y-98104689D01*
X143868280Y-98173207D01*
X143868278Y-98173211D01*
X143847800Y-98249635D01*
X143847800Y-101173720D01*
X143828893Y-101231911D01*
X143818804Y-101243724D01*
X141964512Y-103098015D01*
X141909995Y-103125792D01*
X141856623Y-103119475D01*
X141837172Y-103111418D01*
X141837166Y-103111416D01*
X141681738Y-103080500D01*
X141681736Y-103080500D01*
X141523264Y-103080500D01*
X141523261Y-103080500D01*
X141367836Y-103111416D01*
X141367834Y-103111416D01*
X141221428Y-103172059D01*
X141089661Y-103260104D01*
X141089657Y-103260107D01*
X140977607Y-103372157D01*
X140977604Y-103372161D01*
X140889559Y-103503928D01*
X140828916Y-103650334D01*
X140828916Y-103650336D01*
X140798000Y-103805761D01*
X140162000Y-103805761D01*
X140162000Y-96905761D01*
X140798000Y-96905761D01*
X140798000Y-97064238D01*
X140828916Y-97219663D01*
X140828916Y-97219665D01*
X140889559Y-97366071D01*
X140889560Y-97366073D01*
X140889561Y-97366074D01*
X140977604Y-97497839D01*
X140977607Y-97497842D01*
X141089661Y-97609896D01*
X141221418Y-97697934D01*
X141221420Y-97697935D01*
X141221426Y-97697939D01*
X141240885Y-97705999D01*
X141287409Y-97745731D01*
X141302000Y-97797462D01*
X141302000Y-99622536D01*
X141283093Y-99680727D01*
X141240887Y-99714000D01*
X141221425Y-99722061D01*
X141089661Y-99810104D01*
X141089657Y-99810107D01*
X140977607Y-99922157D01*
X140977604Y-99922161D01*
X140889559Y-100053928D01*
X140828916Y-100200334D01*
X140828916Y-100200336D01*
X140798000Y-100355761D01*
X140798000Y-100514238D01*
X140828916Y-100669663D01*
X140828916Y-100669665D01*
X140889559Y-100816071D01*
X140889560Y-100816073D01*
X140889561Y-100816074D01*
X140977604Y-100947839D01*
X141089661Y-101059896D01*
X141221426Y-101147939D01*
X141367836Y-101208584D01*
X141523264Y-101239500D01*
X141523265Y-101239500D01*
X141681735Y-101239500D01*
X141681736Y-101239500D01*
X141837164Y-101208584D01*
X141983574Y-101147939D01*
X142115339Y-101059896D01*
X142227396Y-100947839D01*
X142315439Y-100816074D01*
X142376084Y-100669664D01*
X142407000Y-100514236D01*
X142407000Y-100355764D01*
X142376084Y-100200336D01*
X142315439Y-100053926D01*
X142227396Y-99922161D01*
X142115339Y-99810104D01*
X141983574Y-99722061D01*
X141964112Y-99713999D01*
X141917588Y-99674262D01*
X141903000Y-99622536D01*
X141903000Y-97797462D01*
X141921907Y-97739271D01*
X141964113Y-97705999D01*
X141983574Y-97697939D01*
X142115339Y-97609896D01*
X142227396Y-97497839D01*
X142315439Y-97366074D01*
X142376084Y-97219664D01*
X142407000Y-97064236D01*
X142407000Y-96905764D01*
X142376084Y-96750336D01*
X142315439Y-96603926D01*
X142227396Y-96472161D01*
X142115339Y-96360104D01*
X141983574Y-96272061D01*
X141983573Y-96272060D01*
X141983571Y-96272059D01*
X141837164Y-96211416D01*
X141681738Y-96180500D01*
X141681736Y-96180500D01*
X141523264Y-96180500D01*
X141523261Y-96180500D01*
X141367836Y-96211416D01*
X141367834Y-96211416D01*
X141221428Y-96272059D01*
X141089661Y-96360104D01*
X141089657Y-96360107D01*
X140977607Y-96472157D01*
X140977604Y-96472161D01*
X140889559Y-96603928D01*
X140828916Y-96750334D01*
X140828916Y-96750336D01*
X140798000Y-96905761D01*
X140162000Y-96905761D01*
X140162000Y-95441478D01*
X140180907Y-95383287D01*
X140190990Y-95371480D01*
X141240488Y-94321981D01*
X141295003Y-94294206D01*
X141348374Y-94300522D01*
X141367836Y-94308584D01*
X141523264Y-94339500D01*
X141523265Y-94339500D01*
X141681735Y-94339500D01*
X141681736Y-94339500D01*
X141837164Y-94308584D01*
X141983574Y-94247939D01*
X142115339Y-94159896D01*
X142227396Y-94047839D01*
X142315439Y-93916074D01*
X142376084Y-93769664D01*
X142407000Y-93614236D01*
X142407000Y-93455764D01*
X142376084Y-93300336D01*
X142315439Y-93153926D01*
X142227396Y-93022161D01*
X142115339Y-92910104D01*
X141983574Y-92822061D01*
X141983573Y-92822060D01*
X141983571Y-92822059D01*
X141837164Y-92761416D01*
X141681738Y-92730500D01*
X141681736Y-92730500D01*
X141523264Y-92730500D01*
X141523261Y-92730500D01*
X141367836Y-92761416D01*
X141367834Y-92761416D01*
X141221428Y-92822059D01*
X141089661Y-92910104D01*
X141089657Y-92910107D01*
X140977607Y-93022157D01*
X140977604Y-93022161D01*
X140889559Y-93153928D01*
X140828916Y-93300334D01*
X140828916Y-93300336D01*
X140798000Y-93455761D01*
X140798000Y-93614238D01*
X140828916Y-93769666D01*
X140828918Y-93769672D01*
X140836975Y-93789123D01*
X140841775Y-93850120D01*
X140815515Y-93897012D01*
X139929304Y-94783224D01*
X139874787Y-94811001D01*
X139814355Y-94801430D01*
X139771090Y-94758165D01*
X139760300Y-94713220D01*
X139760300Y-92393178D01*
X139779207Y-92334987D01*
X139789290Y-92323180D01*
X141240488Y-90871981D01*
X141295003Y-90844206D01*
X141348374Y-90850522D01*
X141367836Y-90858584D01*
X141523264Y-90889500D01*
X141523265Y-90889500D01*
X141681735Y-90889500D01*
X141681736Y-90889500D01*
X141837164Y-90858584D01*
X141983574Y-90797939D01*
X142115339Y-90709896D01*
X142227396Y-90597839D01*
X142315439Y-90466074D01*
X142376084Y-90319664D01*
X142407000Y-90164236D01*
X142407000Y-90005764D01*
X142406999Y-90005761D01*
X148098000Y-90005761D01*
X148098000Y-90164238D01*
X148128916Y-90319663D01*
X148128916Y-90319665D01*
X148189559Y-90466071D01*
X148189560Y-90466073D01*
X148189561Y-90466074D01*
X148277604Y-90597839D01*
X148389661Y-90709896D01*
X148521426Y-90797939D01*
X148667836Y-90858584D01*
X148823264Y-90889500D01*
X148823265Y-90889500D01*
X148981735Y-90889500D01*
X148981736Y-90889500D01*
X149137164Y-90858584D01*
X149283574Y-90797939D01*
X149415339Y-90709896D01*
X149527396Y-90597839D01*
X149615439Y-90466074D01*
X149676084Y-90319664D01*
X149707000Y-90164236D01*
X149707000Y-90005764D01*
X149676084Y-89850336D01*
X149615439Y-89703926D01*
X149527396Y-89572161D01*
X149415339Y-89460104D01*
X149283574Y-89372061D01*
X149283573Y-89372060D01*
X149283571Y-89372059D01*
X149137164Y-89311416D01*
X148981738Y-89280500D01*
X148981736Y-89280500D01*
X148823264Y-89280500D01*
X148823261Y-89280500D01*
X148667836Y-89311416D01*
X148667834Y-89311416D01*
X148521428Y-89372059D01*
X148389661Y-89460104D01*
X148389657Y-89460107D01*
X148277607Y-89572157D01*
X148277604Y-89572161D01*
X148189559Y-89703928D01*
X148128916Y-89850334D01*
X148128916Y-89850336D01*
X148098000Y-90005761D01*
X142406999Y-90005761D01*
X142376084Y-89850336D01*
X142315439Y-89703926D01*
X142227396Y-89572161D01*
X142115339Y-89460104D01*
X141983574Y-89372061D01*
X141983573Y-89372060D01*
X141983571Y-89372059D01*
X141837164Y-89311416D01*
X141752906Y-89294656D01*
X141699522Y-89264759D01*
X141673906Y-89209194D01*
X141685843Y-89149184D01*
X141702212Y-89127558D01*
X144456275Y-86373496D01*
X144510792Y-86345719D01*
X144526279Y-86344500D01*
X148562963Y-86344500D01*
X148562963Y-86344499D01*
X148639389Y-86324021D01*
X148707911Y-86284460D01*
X148763860Y-86228511D01*
X158421411Y-76570958D01*
X158475926Y-76543183D01*
X158536356Y-76552753D01*
X158536358Y-76552754D01*
X158536358Y-76552755D01*
X158622497Y-76596645D01*
X158622498Y-76596646D01*
X158622500Y-76596646D01*
X158622501Y-76596647D01*
X158802215Y-76655040D01*
X158802216Y-76655040D01*
X158802219Y-76655041D01*
X158988849Y-76684600D01*
X158988852Y-76684600D01*
X159177817Y-76684600D01*
X159364446Y-76655041D01*
X159364447Y-76655040D01*
X159364451Y-76655040D01*
X159544165Y-76596647D01*
X159712532Y-76510860D01*
X159865406Y-76399790D01*
X159999023Y-76266173D01*
X160110093Y-76113299D01*
X160195880Y-75944932D01*
X160254273Y-75765218D01*
X160283833Y-75578581D01*
X160283833Y-75389619D01*
X160283833Y-75389615D01*
X160254274Y-75202986D01*
X160254273Y-75202982D01*
X160195880Y-75023268D01*
X160110093Y-74854901D01*
X159999023Y-74702027D01*
X159865406Y-74568410D01*
X159865402Y-74568407D01*
X159865400Y-74568405D01*
X159825728Y-74539581D01*
X159825726Y-74539581D01*
X159722184Y-74464353D01*
X160549500Y-74464353D01*
X160549500Y-76503846D01*
X160549501Y-76503858D01*
X160561132Y-76562327D01*
X160561134Y-76562333D01*
X160605445Y-76628648D01*
X160605448Y-76628652D01*
X160671769Y-76672967D01*
X160716231Y-76681811D01*
X160730241Y-76684598D01*
X160730246Y-76684598D01*
X160730252Y-76684600D01*
X161350500Y-76684600D01*
X161408691Y-76703507D01*
X161444655Y-76753007D01*
X161449500Y-76783600D01*
X161449500Y-96710500D01*
X161430593Y-96768691D01*
X161381093Y-96804655D01*
X161350500Y-96809500D01*
X160730252Y-96809500D01*
X160730251Y-96809500D01*
X160730241Y-96809501D01*
X160671772Y-96821132D01*
X160671766Y-96821134D01*
X160605451Y-96865445D01*
X160605445Y-96865451D01*
X160561134Y-96931766D01*
X160561132Y-96931772D01*
X160549501Y-96990241D01*
X160549500Y-96990253D01*
X160549500Y-99029746D01*
X160549501Y-99029758D01*
X160561132Y-99088227D01*
X160561134Y-99088233D01*
X160605445Y-99154548D01*
X160605448Y-99154552D01*
X160671769Y-99198867D01*
X160712023Y-99206874D01*
X160730241Y-99210498D01*
X160730246Y-99210498D01*
X160730252Y-99210500D01*
X160730253Y-99210500D01*
X162769747Y-99210500D01*
X162769748Y-99210500D01*
X162828231Y-99198867D01*
X162894552Y-99154552D01*
X162938867Y-99088231D01*
X162950500Y-99029748D01*
X162950500Y-96990252D01*
X162938867Y-96931769D01*
X162894552Y-96865448D01*
X162894548Y-96865445D01*
X162828233Y-96821134D01*
X162828231Y-96821133D01*
X162828228Y-96821132D01*
X162828227Y-96821132D01*
X162769758Y-96809501D01*
X162769748Y-96809500D01*
X162769747Y-96809500D01*
X162149500Y-96809500D01*
X162091309Y-96790593D01*
X162055345Y-96741093D01*
X162050500Y-96710500D01*
X162050500Y-76783600D01*
X162069407Y-76725409D01*
X162118907Y-76689445D01*
X162149500Y-76684600D01*
X162769747Y-76684600D01*
X162769748Y-76684600D01*
X162828231Y-76672967D01*
X162894552Y-76628652D01*
X162938867Y-76562331D01*
X162950500Y-76503848D01*
X162950500Y-74464352D01*
X162938867Y-74405869D01*
X162894552Y-74339548D01*
X162894548Y-74339545D01*
X162828233Y-74295234D01*
X162828231Y-74295233D01*
X162828228Y-74295232D01*
X162828227Y-74295232D01*
X162769758Y-74283601D01*
X162769748Y-74283600D01*
X160730252Y-74283600D01*
X160730251Y-74283600D01*
X160730241Y-74283601D01*
X160671772Y-74295232D01*
X160671766Y-74295234D01*
X160605451Y-74339545D01*
X160605445Y-74339551D01*
X160561134Y-74405866D01*
X160561132Y-74405872D01*
X160549501Y-74464341D01*
X160549500Y-74464353D01*
X159722184Y-74464353D01*
X159712532Y-74457340D01*
X159712531Y-74457339D01*
X159712529Y-74457338D01*
X159544165Y-74371553D01*
X159364446Y-74313158D01*
X159177817Y-74283600D01*
X159177814Y-74283600D01*
X158988852Y-74283600D01*
X158988849Y-74283600D01*
X158802219Y-74313158D01*
X158622500Y-74371553D01*
X158454136Y-74457338D01*
X158301261Y-74568409D01*
X158167642Y-74702028D01*
X158056571Y-74854903D01*
X157970786Y-75023267D01*
X157912391Y-75202986D01*
X157882833Y-75389615D01*
X157882833Y-75578584D01*
X157912391Y-75765213D01*
X157970787Y-75944935D01*
X158014654Y-76031031D01*
X158024225Y-76091463D01*
X157996448Y-76145979D01*
X148427925Y-85714504D01*
X148373408Y-85742281D01*
X148357921Y-85743500D01*
X144321235Y-85743500D01*
X144244811Y-85763978D01*
X144244807Y-85763980D01*
X144176291Y-85803538D01*
X138467804Y-91512025D01*
X138447148Y-91522549D01*
X138428393Y-91536176D01*
X138420404Y-91536176D01*
X138413287Y-91539802D01*
X138390392Y-91536176D01*
X138367207Y-91536176D01*
X138360744Y-91531480D01*
X138352855Y-91530231D01*
X138336463Y-91513839D01*
X138317707Y-91500212D01*
X138315238Y-91492614D01*
X138309590Y-91486966D01*
X138298800Y-91442021D01*
X138298800Y-91318600D01*
X138317707Y-91260409D01*
X138327796Y-91248596D01*
X144586896Y-84989496D01*
X144641413Y-84961719D01*
X144656900Y-84960500D01*
X148269747Y-84960500D01*
X148269748Y-84960500D01*
X148328231Y-84948867D01*
X148394552Y-84904552D01*
X148438867Y-84838231D01*
X148450500Y-84779748D01*
X148450500Y-81740252D01*
X148438867Y-81681769D01*
X148394552Y-81615448D01*
X148394548Y-81615445D01*
X148328233Y-81571134D01*
X148328231Y-81571133D01*
X148328228Y-81571132D01*
X148328227Y-81571132D01*
X148269758Y-81559501D01*
X148269748Y-81559500D01*
X148269747Y-81559500D01*
X143347800Y-81559500D01*
X143289609Y-81540593D01*
X143253645Y-81491093D01*
X143248800Y-81460500D01*
X143248800Y-78059500D01*
X143267707Y-78001309D01*
X143317207Y-77965345D01*
X143347800Y-77960500D01*
X148269747Y-77960500D01*
X148269748Y-77960500D01*
X148328231Y-77948867D01*
X148394552Y-77904552D01*
X148438867Y-77838231D01*
X148450500Y-77779748D01*
X148450500Y-75389615D01*
X152549500Y-75389615D01*
X152549500Y-75578584D01*
X152579058Y-75765213D01*
X152637453Y-75944932D01*
X152719221Y-76105413D01*
X152723240Y-76113299D01*
X152834310Y-76266173D01*
X152967927Y-76399790D01*
X153120801Y-76510860D01*
X153289168Y-76596647D01*
X153468882Y-76655040D01*
X153468883Y-76655040D01*
X153468886Y-76655041D01*
X153655516Y-76684600D01*
X153655519Y-76684600D01*
X153844484Y-76684600D01*
X154031113Y-76655041D01*
X154031114Y-76655040D01*
X154031118Y-76655040D01*
X154210832Y-76596647D01*
X154379199Y-76510860D01*
X154532073Y-76399790D01*
X154665690Y-76266173D01*
X154776760Y-76113299D01*
X154862547Y-75944932D01*
X154920940Y-75765218D01*
X154950500Y-75578581D01*
X154950500Y-75389619D01*
X154950500Y-75389615D01*
X155216167Y-75389615D01*
X155216167Y-75578584D01*
X155245725Y-75765213D01*
X155304120Y-75944932D01*
X155385888Y-76105413D01*
X155389907Y-76113299D01*
X155500977Y-76266173D01*
X155634594Y-76399790D01*
X155787468Y-76510860D01*
X155955835Y-76596647D01*
X156135549Y-76655040D01*
X156135550Y-76655040D01*
X156135553Y-76655041D01*
X156322183Y-76684600D01*
X156322186Y-76684600D01*
X156511151Y-76684600D01*
X156697780Y-76655041D01*
X156697781Y-76655040D01*
X156697785Y-76655040D01*
X156877499Y-76596647D01*
X157045866Y-76510860D01*
X157198740Y-76399790D01*
X157332357Y-76266173D01*
X157443427Y-76113299D01*
X157529214Y-75944932D01*
X157587607Y-75765218D01*
X157617167Y-75578581D01*
X157617167Y-75389619D01*
X157617167Y-75389615D01*
X157587608Y-75202986D01*
X157587607Y-75202982D01*
X157529214Y-75023268D01*
X157443427Y-74854901D01*
X157332357Y-74702027D01*
X157198740Y-74568410D01*
X157045866Y-74457340D01*
X157045865Y-74457339D01*
X157045863Y-74457338D01*
X156877499Y-74371553D01*
X156697780Y-74313158D01*
X156511151Y-74283600D01*
X156511148Y-74283600D01*
X156322186Y-74283600D01*
X156322183Y-74283600D01*
X156135553Y-74313158D01*
X155955834Y-74371553D01*
X155787470Y-74457338D01*
X155634595Y-74568409D01*
X155500976Y-74702028D01*
X155389905Y-74854903D01*
X155304120Y-75023267D01*
X155245725Y-75202986D01*
X155216167Y-75389615D01*
X154950500Y-75389615D01*
X154920941Y-75202986D01*
X154920940Y-75202982D01*
X154862547Y-75023268D01*
X154776760Y-74854901D01*
X154665690Y-74702027D01*
X154532073Y-74568410D01*
X154379199Y-74457340D01*
X154379198Y-74457339D01*
X154379196Y-74457338D01*
X154210832Y-74371553D01*
X154031113Y-74313158D01*
X153844484Y-74283600D01*
X153844481Y-74283600D01*
X153655519Y-74283600D01*
X153655516Y-74283600D01*
X153468886Y-74313158D01*
X153289167Y-74371553D01*
X153120803Y-74457338D01*
X152967928Y-74568409D01*
X152834309Y-74702028D01*
X152723238Y-74854903D01*
X152637453Y-75023267D01*
X152579058Y-75202986D01*
X152549500Y-75389615D01*
X148450500Y-75389615D01*
X148450500Y-74740252D01*
X148438867Y-74681769D01*
X148394552Y-74615448D01*
X148394548Y-74615445D01*
X148328233Y-74571134D01*
X148328231Y-74571133D01*
X148328228Y-74571132D01*
X148328227Y-74571132D01*
X148269758Y-74559501D01*
X148269748Y-74559500D01*
X143230252Y-74559500D01*
X143230251Y-74559500D01*
X143230241Y-74559501D01*
X143171772Y-74571132D01*
X143171766Y-74571134D01*
X143105451Y-74615445D01*
X143105445Y-74615451D01*
X143061134Y-74681766D01*
X143061132Y-74681772D01*
X143049501Y-74740241D01*
X143049500Y-74740253D01*
X143049500Y-75760500D01*
X143030593Y-75818691D01*
X142981093Y-75854655D01*
X142950500Y-75859500D01*
X142901027Y-75859500D01*
X142795573Y-75859500D01*
X142693713Y-75886793D01*
X142693712Y-75886793D01*
X142693710Y-75886794D01*
X142693709Y-75886794D01*
X142602389Y-75939518D01*
X142527818Y-76014089D01*
X142475094Y-76105409D01*
X142475094Y-76105410D01*
X142475093Y-76105412D01*
X142475093Y-76105413D01*
X142464224Y-76145979D01*
X142447800Y-76207274D01*
X142447800Y-84364798D01*
X142428893Y-84422989D01*
X142418804Y-84434802D01*
X136867938Y-89985667D01*
X136813421Y-90013444D01*
X136764840Y-90007701D01*
X136764531Y-90008655D01*
X136755624Y-90005761D01*
X136693782Y-89985667D01*
X136581113Y-89949058D01*
X136394484Y-89919500D01*
X136394481Y-89919500D01*
X136205519Y-89919500D01*
X136205516Y-89919500D01*
X136018886Y-89949058D01*
X135839167Y-90007453D01*
X135670803Y-90093238D01*
X135517928Y-90204309D01*
X135384309Y-90337928D01*
X135273238Y-90490803D01*
X135187453Y-90659167D01*
X135129058Y-90838886D01*
X135099500Y-91025515D01*
X135099500Y-91214484D01*
X135129058Y-91401113D01*
X135187453Y-91580832D01*
X135260562Y-91724318D01*
X135273240Y-91749199D01*
X135384310Y-91902073D01*
X135517927Y-92035690D01*
X135670801Y-92146760D01*
X135839168Y-92232547D01*
X136018882Y-92290940D01*
X136018883Y-92290940D01*
X136018886Y-92290941D01*
X136205516Y-92320500D01*
X136205519Y-92320500D01*
X136394484Y-92320500D01*
X136581113Y-92290941D01*
X136581114Y-92290940D01*
X136581118Y-92290940D01*
X136760832Y-92232547D01*
X136929199Y-92146760D01*
X137082073Y-92035690D01*
X137215690Y-91902073D01*
X137318708Y-91760280D01*
X137368207Y-91724318D01*
X137429393Y-91724318D01*
X137478893Y-91760282D01*
X137497800Y-91818473D01*
X137497800Y-93421526D01*
X137478893Y-93479717D01*
X137429393Y-93515681D01*
X137368207Y-93515681D01*
X137318708Y-93479717D01*
X137215694Y-93337932D01*
X137215692Y-93337930D01*
X137215690Y-93337927D01*
X137082073Y-93204310D01*
X136929199Y-93093240D01*
X136929198Y-93093239D01*
X136929196Y-93093238D01*
X136760832Y-93007453D01*
X136581113Y-92949058D01*
X136394484Y-92919500D01*
X136394481Y-92919500D01*
X136205519Y-92919500D01*
X136205516Y-92919500D01*
X136018886Y-92949058D01*
X135839167Y-93007453D01*
X135670803Y-93093238D01*
X135517928Y-93204309D01*
X135384309Y-93337928D01*
X135273238Y-93490803D01*
X135187453Y-93659167D01*
X135129058Y-93838886D01*
X135099500Y-94025515D01*
X135099500Y-94214484D01*
X135129058Y-94401113D01*
X135187453Y-94580832D01*
X135260562Y-94724318D01*
X135273240Y-94749199D01*
X135384310Y-94902073D01*
X135517927Y-95035690D01*
X135670801Y-95146760D01*
X135839168Y-95232547D01*
X136018882Y-95290940D01*
X136018883Y-95290940D01*
X136018886Y-95290941D01*
X136205516Y-95320500D01*
X136205519Y-95320500D01*
X136394484Y-95320500D01*
X136581113Y-95290941D01*
X136581114Y-95290940D01*
X136581118Y-95290940D01*
X136760832Y-95232547D01*
X136929199Y-95146760D01*
X137082073Y-95035690D01*
X137215690Y-94902073D01*
X137318708Y-94760280D01*
X137368207Y-94724318D01*
X137429393Y-94724318D01*
X137478893Y-94760282D01*
X137497800Y-94818473D01*
X137497800Y-100421526D01*
X137478893Y-100479717D01*
X137429393Y-100515681D01*
X137368207Y-100515681D01*
X137318708Y-100479717D01*
X137215694Y-100337932D01*
X137215692Y-100337930D01*
X137215690Y-100337927D01*
X137082073Y-100204310D01*
X136929199Y-100093240D01*
X136929198Y-100093239D01*
X136929196Y-100093238D01*
X136760832Y-100007453D01*
X136581113Y-99949058D01*
X136394484Y-99919500D01*
X136394481Y-99919500D01*
X136205519Y-99919500D01*
X136205516Y-99919500D01*
X136018886Y-99949058D01*
X135839167Y-100007453D01*
X135670803Y-100093238D01*
X135517928Y-100204309D01*
X135384309Y-100337928D01*
X135273238Y-100490803D01*
X135187453Y-100659167D01*
X135129058Y-100838886D01*
X135099500Y-101025515D01*
X135099500Y-101214484D01*
X135129058Y-101401113D01*
X135187453Y-101580832D01*
X135260562Y-101724318D01*
X135273240Y-101749199D01*
X135384310Y-101902073D01*
X135517927Y-102035690D01*
X135670801Y-102146760D01*
X135839168Y-102232547D01*
X136018882Y-102290940D01*
X136018883Y-102290940D01*
X136018886Y-102290941D01*
X136205516Y-102320500D01*
X136205519Y-102320500D01*
X136394484Y-102320500D01*
X136581113Y-102290941D01*
X136581114Y-102290940D01*
X136581118Y-102290940D01*
X136760832Y-102232547D01*
X136929199Y-102146760D01*
X137082073Y-102035690D01*
X137215690Y-101902073D01*
X137318708Y-101760280D01*
X137368207Y-101724318D01*
X137429393Y-101724318D01*
X137478893Y-101760282D01*
X137497800Y-101818473D01*
X137497800Y-102314798D01*
X137478893Y-102372989D01*
X137468804Y-102384802D01*
X136867938Y-102985667D01*
X136813421Y-103013444D01*
X136764840Y-103007701D01*
X136764531Y-103008655D01*
X136581113Y-102949058D01*
X136394484Y-102919500D01*
X136394481Y-102919500D01*
X136205519Y-102919500D01*
X136205516Y-102919500D01*
X136018886Y-102949058D01*
X135839167Y-103007453D01*
X135670803Y-103093238D01*
X135517928Y-103204309D01*
X135384309Y-103337928D01*
X135273238Y-103490803D01*
X135187453Y-103659167D01*
X135129058Y-103838886D01*
X135099500Y-104025515D01*
X135099500Y-104214484D01*
X135129058Y-104401113D01*
X135187453Y-104580832D01*
X135246878Y-104697462D01*
X135273240Y-104749199D01*
X135384310Y-104902073D01*
X135434435Y-104952198D01*
X135462211Y-105006713D01*
X135452640Y-105067145D01*
X135409375Y-105110410D01*
X135364430Y-105121200D01*
X134130362Y-105121200D01*
X134051238Y-105121200D01*
X134004461Y-105133733D01*
X133974807Y-105141679D01*
X133906293Y-105181236D01*
X133906292Y-105181237D01*
X124097470Y-114990057D01*
X124042953Y-115017834D01*
X123989585Y-115011519D01*
X123979128Y-115007188D01*
X123979119Y-115007185D01*
X123827367Y-114977000D01*
X123827365Y-114977000D01*
X123672635Y-114977000D01*
X123672632Y-114977000D01*
X123520879Y-115007185D01*
X123377927Y-115066398D01*
X123377918Y-115066402D01*
X123249274Y-115152361D01*
X123139861Y-115261774D01*
X123053902Y-115390418D01*
X123053898Y-115390427D01*
X122994685Y-115533379D01*
X122964500Y-115685132D01*
X122964500Y-115839867D01*
X122994685Y-115991620D01*
X123053898Y-116134572D01*
X123053902Y-116134581D01*
X123125502Y-116241736D01*
X123139862Y-116263227D01*
X123249273Y-116372638D01*
X123291962Y-116401162D01*
X123377918Y-116458597D01*
X123377924Y-116458599D01*
X123377926Y-116458601D01*
X123520878Y-116517814D01*
X123672635Y-116548000D01*
X123672636Y-116548000D01*
X123827364Y-116548000D01*
X123827365Y-116548000D01*
X123979122Y-116517814D01*
X124122074Y-116458601D01*
X124122077Y-116458598D01*
X124122081Y-116458597D01*
X124165348Y-116429686D01*
X124250727Y-116372638D01*
X124360138Y-116263227D01*
X124442083Y-116140588D01*
X124446097Y-116134581D01*
X124446098Y-116134577D01*
X124446101Y-116134574D01*
X124505314Y-115991622D01*
X124535500Y-115839865D01*
X124535500Y-115685135D01*
X124535499Y-115685132D01*
X125504500Y-115685132D01*
X125504500Y-115839867D01*
X125534685Y-115991620D01*
X125593898Y-116134572D01*
X125593902Y-116134581D01*
X125665502Y-116241736D01*
X125679862Y-116263227D01*
X125789273Y-116372638D01*
X125831962Y-116401162D01*
X125917918Y-116458597D01*
X125917924Y-116458599D01*
X125917926Y-116458601D01*
X126060878Y-116517814D01*
X126212635Y-116548000D01*
X126212636Y-116548000D01*
X126367364Y-116548000D01*
X126367365Y-116548000D01*
X126519122Y-116517814D01*
X126662074Y-116458601D01*
X126662077Y-116458598D01*
X126662081Y-116458597D01*
X126705348Y-116429686D01*
X126790727Y-116372638D01*
X126900138Y-116263227D01*
X126982083Y-116140588D01*
X126986097Y-116134581D01*
X126986098Y-116134577D01*
X126986101Y-116134574D01*
X127045314Y-115991622D01*
X127075500Y-115839865D01*
X127075500Y-115685135D01*
X127075499Y-115685132D01*
X128044500Y-115685132D01*
X128044500Y-115839867D01*
X128074685Y-115991620D01*
X128133898Y-116134572D01*
X128133902Y-116134581D01*
X128205502Y-116241736D01*
X128219862Y-116263227D01*
X128329273Y-116372638D01*
X128371962Y-116401162D01*
X128457918Y-116458597D01*
X128457924Y-116458599D01*
X128457926Y-116458601D01*
X128600878Y-116517814D01*
X128752635Y-116548000D01*
X128752636Y-116548000D01*
X128907364Y-116548000D01*
X128907365Y-116548000D01*
X129059122Y-116517814D01*
X129202074Y-116458601D01*
X129202077Y-116458598D01*
X129202081Y-116458597D01*
X129245348Y-116429686D01*
X129330727Y-116372638D01*
X129440138Y-116263227D01*
X129522083Y-116140588D01*
X129526097Y-116134581D01*
X129526098Y-116134577D01*
X129526101Y-116134574D01*
X129585314Y-115991622D01*
X129615500Y-115839865D01*
X129615500Y-115685135D01*
X129585314Y-115533378D01*
X129526101Y-115390426D01*
X129526099Y-115390424D01*
X129526097Y-115390418D01*
X129468662Y-115304462D01*
X129440138Y-115261773D01*
X129330727Y-115152362D01*
X129296118Y-115129237D01*
X129202081Y-115066402D01*
X129202072Y-115066398D01*
X129059120Y-115007185D01*
X128907367Y-114977000D01*
X128907365Y-114977000D01*
X128752635Y-114977000D01*
X128752632Y-114977000D01*
X128600879Y-115007185D01*
X128457927Y-115066398D01*
X128457918Y-115066402D01*
X128329274Y-115152361D01*
X128219861Y-115261774D01*
X128133902Y-115390418D01*
X128133898Y-115390427D01*
X128074685Y-115533379D01*
X128044500Y-115685132D01*
X127075499Y-115685132D01*
X127045314Y-115533378D01*
X126986101Y-115390426D01*
X126986099Y-115390424D01*
X126986097Y-115390418D01*
X126928662Y-115304462D01*
X126900138Y-115261773D01*
X126790727Y-115152362D01*
X126756118Y-115129237D01*
X126662081Y-115066402D01*
X126662072Y-115066398D01*
X126519120Y-115007185D01*
X126367367Y-114977000D01*
X126367365Y-114977000D01*
X126212635Y-114977000D01*
X126212632Y-114977000D01*
X126060879Y-115007185D01*
X125917927Y-115066398D01*
X125917918Y-115066402D01*
X125789274Y-115152361D01*
X125679861Y-115261774D01*
X125593902Y-115390418D01*
X125593898Y-115390427D01*
X125534685Y-115533379D01*
X125504500Y-115685132D01*
X124535499Y-115685132D01*
X124505314Y-115533378D01*
X124497552Y-115514639D01*
X124495665Y-115505879D01*
X124497911Y-115483926D01*
X124496180Y-115461922D01*
X124501055Y-115453216D01*
X124501895Y-115445011D01*
X124511918Y-115433817D01*
X124522439Y-115415030D01*
X134186275Y-105751196D01*
X134240792Y-105723419D01*
X134256279Y-105722200D01*
X136442921Y-105722200D01*
X136501112Y-105741107D01*
X136537076Y-105790607D01*
X136537076Y-105851793D01*
X136512925Y-105891204D01*
X130270489Y-112133640D01*
X130270488Y-112133639D01*
X130214539Y-112189589D01*
X130174980Y-112258107D01*
X130174978Y-112258111D01*
X130154500Y-112334535D01*
X130154500Y-119848004D01*
X130135593Y-119906195D01*
X130093387Y-119939468D01*
X130047875Y-119958320D01*
X129907101Y-120052383D01*
X129907097Y-120052386D01*
X129787386Y-120172097D01*
X129787383Y-120172101D01*
X129693319Y-120312876D01*
X129628530Y-120469291D01*
X129628530Y-120469293D01*
X129595500Y-120635344D01*
X129595500Y-120804655D01*
X129628530Y-120970706D01*
X129628530Y-120970708D01*
X129693319Y-121127123D01*
X129693320Y-121127125D01*
X129693321Y-121127126D01*
X129751526Y-121214236D01*
X129771881Y-121244698D01*
X129788490Y-121303586D01*
X129767313Y-121360990D01*
X129716439Y-121394983D01*
X129689566Y-121398700D01*
X128923000Y-121398700D01*
X128864809Y-121379793D01*
X128828845Y-121330293D01*
X128824000Y-121299700D01*
X128824000Y-120845001D01*
X128823999Y-120845000D01*
X128300793Y-120845000D01*
X128320000Y-120773319D01*
X128320000Y-120666681D01*
X128300793Y-120595000D01*
X128823999Y-120595000D01*
X128824000Y-120594999D01*
X128824000Y-120036377D01*
X128823999Y-120036375D01*
X128809493Y-119963453D01*
X128809492Y-119963451D01*
X128754241Y-119880762D01*
X128754237Y-119880758D01*
X128671548Y-119825507D01*
X128671546Y-119825506D01*
X128598624Y-119811000D01*
X128040001Y-119811000D01*
X128040000Y-119811001D01*
X128040000Y-120334206D01*
X127968319Y-120315000D01*
X127861681Y-120315000D01*
X127790000Y-120334206D01*
X127790000Y-119811001D01*
X127789999Y-119811000D01*
X127231375Y-119811000D01*
X127158453Y-119825506D01*
X127158451Y-119825507D01*
X127075762Y-119880758D01*
X127075758Y-119880762D01*
X127020507Y-119963451D01*
X127020506Y-119963453D01*
X127006000Y-120036375D01*
X127006000Y-120594999D01*
X127006001Y-120595000D01*
X127529207Y-120595000D01*
X127510000Y-120666681D01*
X127510000Y-120773319D01*
X127529207Y-120845000D01*
X127006001Y-120845000D01*
X127006000Y-120845001D01*
X127006000Y-121005499D01*
X126987093Y-121063690D01*
X126937593Y-121099654D01*
X126876407Y-121099654D01*
X126836996Y-121075503D01*
X121949936Y-116188443D01*
X121922159Y-116133926D01*
X121928475Y-116080557D01*
X121965314Y-115991622D01*
X121995500Y-115839865D01*
X121995500Y-115685135D01*
X121982307Y-115618810D01*
X121989497Y-115558049D01*
X122009397Y-115529494D01*
X122548480Y-114990413D01*
X122584786Y-114927529D01*
X122601169Y-114899153D01*
X122601179Y-114899134D01*
X122601206Y-114899088D01*
X122601207Y-114899087D01*
X122628500Y-114797227D01*
X122628500Y-107745132D01*
X122964500Y-107745132D01*
X122964500Y-107899867D01*
X122994685Y-108051620D01*
X123053898Y-108194572D01*
X123053902Y-108194581D01*
X123125502Y-108301736D01*
X123139862Y-108323227D01*
X123249273Y-108432638D01*
X123291962Y-108461162D01*
X123377918Y-108518597D01*
X123377924Y-108518599D01*
X123377926Y-108518601D01*
X123520878Y-108577814D01*
X123672635Y-108608000D01*
X123672636Y-108608000D01*
X123827364Y-108608000D01*
X123827365Y-108608000D01*
X123979122Y-108577814D01*
X124122074Y-108518601D01*
X124122077Y-108518598D01*
X124122081Y-108518597D01*
X124177438Y-108481608D01*
X124250727Y-108432638D01*
X124360138Y-108323227D01*
X124417186Y-108237848D01*
X124446097Y-108194581D01*
X124446098Y-108194577D01*
X124446101Y-108194574D01*
X124505314Y-108051622D01*
X124535500Y-107899865D01*
X124535500Y-107745135D01*
X124535499Y-107745132D01*
X125504500Y-107745132D01*
X125504500Y-107899867D01*
X125534685Y-108051620D01*
X125593898Y-108194572D01*
X125593902Y-108194581D01*
X125665502Y-108301736D01*
X125679862Y-108323227D01*
X125789273Y-108432638D01*
X125831962Y-108461162D01*
X125917918Y-108518597D01*
X125917924Y-108518599D01*
X125917926Y-108518601D01*
X126060878Y-108577814D01*
X126212635Y-108608000D01*
X126212636Y-108608000D01*
X126367364Y-108608000D01*
X126367365Y-108608000D01*
X126519122Y-108577814D01*
X126662074Y-108518601D01*
X126662077Y-108518598D01*
X126662081Y-108518597D01*
X126717438Y-108481608D01*
X126790727Y-108432638D01*
X126900138Y-108323227D01*
X126957186Y-108237848D01*
X126986097Y-108194581D01*
X126986098Y-108194577D01*
X126986101Y-108194574D01*
X127045314Y-108051622D01*
X127075500Y-107899865D01*
X127075500Y-107745135D01*
X127075499Y-107745132D01*
X128044500Y-107745132D01*
X128044500Y-107899867D01*
X128074685Y-108051620D01*
X128133898Y-108194572D01*
X128133902Y-108194581D01*
X128205502Y-108301736D01*
X128219862Y-108323227D01*
X128329273Y-108432638D01*
X128371962Y-108461162D01*
X128457918Y-108518597D01*
X128457924Y-108518599D01*
X128457926Y-108518601D01*
X128600878Y-108577814D01*
X128752635Y-108608000D01*
X128752636Y-108608000D01*
X128907364Y-108608000D01*
X128907365Y-108608000D01*
X129059122Y-108577814D01*
X129202074Y-108518601D01*
X129202077Y-108518598D01*
X129202081Y-108518597D01*
X129257438Y-108481608D01*
X129330727Y-108432638D01*
X129440138Y-108323227D01*
X129497186Y-108237848D01*
X129526097Y-108194581D01*
X129526098Y-108194577D01*
X129526101Y-108194574D01*
X129585314Y-108051622D01*
X129615500Y-107899865D01*
X129615500Y-107745135D01*
X129585314Y-107593378D01*
X129526101Y-107450426D01*
X129526099Y-107450424D01*
X129526097Y-107450418D01*
X129468662Y-107364462D01*
X129440138Y-107321773D01*
X129330727Y-107212362D01*
X129309236Y-107198002D01*
X129202081Y-107126402D01*
X129202072Y-107126398D01*
X129059120Y-107067185D01*
X128907367Y-107037000D01*
X128907365Y-107037000D01*
X128752635Y-107037000D01*
X128752632Y-107037000D01*
X128600879Y-107067185D01*
X128457927Y-107126398D01*
X128457918Y-107126402D01*
X128329274Y-107212361D01*
X128219861Y-107321774D01*
X128133902Y-107450418D01*
X128133898Y-107450427D01*
X128074685Y-107593379D01*
X128044500Y-107745132D01*
X127075499Y-107745132D01*
X127045314Y-107593378D01*
X126986101Y-107450426D01*
X126986099Y-107450424D01*
X126986097Y-107450418D01*
X126928662Y-107364462D01*
X126900138Y-107321773D01*
X126790727Y-107212362D01*
X126769236Y-107198002D01*
X126662081Y-107126402D01*
X126662072Y-107126398D01*
X126519120Y-107067185D01*
X126367367Y-107037000D01*
X126367365Y-107037000D01*
X126212635Y-107037000D01*
X126212632Y-107037000D01*
X126060879Y-107067185D01*
X125917927Y-107126398D01*
X125917918Y-107126402D01*
X125789274Y-107212361D01*
X125679861Y-107321774D01*
X125593902Y-107450418D01*
X125593898Y-107450427D01*
X125534685Y-107593379D01*
X125504500Y-107745132D01*
X124535499Y-107745132D01*
X124505314Y-107593378D01*
X124446101Y-107450426D01*
X124446099Y-107450424D01*
X124446097Y-107450418D01*
X124388662Y-107364462D01*
X124360138Y-107321773D01*
X124250727Y-107212362D01*
X124229236Y-107198002D01*
X124122081Y-107126402D01*
X124122072Y-107126398D01*
X123979120Y-107067185D01*
X123827367Y-107037000D01*
X123827365Y-107037000D01*
X123672635Y-107037000D01*
X123672632Y-107037000D01*
X123520879Y-107067185D01*
X123377927Y-107126398D01*
X123377918Y-107126402D01*
X123249274Y-107212361D01*
X123139861Y-107321774D01*
X123053902Y-107450418D01*
X123053898Y-107450427D01*
X122994685Y-107593379D01*
X122964500Y-107745132D01*
X122628500Y-107745132D01*
X122628500Y-81783573D01*
X122601207Y-81681713D01*
X122601207Y-81681712D01*
X122601207Y-81681711D01*
X122548483Y-81590391D01*
X122548481Y-81590389D01*
X122548480Y-81590387D01*
X116897613Y-75939520D01*
X116897610Y-75939518D01*
X116897608Y-75939516D01*
X116806291Y-75886794D01*
X116806293Y-75886794D01*
X116766770Y-75876204D01*
X116704427Y-75859500D01*
X116704425Y-75859500D01*
X116549500Y-75859500D01*
X116491309Y-75840593D01*
X116455345Y-75791093D01*
X116450500Y-75760500D01*
X116450500Y-74740253D01*
X116450498Y-74740241D01*
X116447711Y-74726231D01*
X116438867Y-74681769D01*
X116394552Y-74615448D01*
X116394548Y-74615445D01*
X116328233Y-74571134D01*
X116328231Y-74571133D01*
X116328228Y-74571132D01*
X116328227Y-74571132D01*
X116269758Y-74559501D01*
X116269748Y-74559500D01*
X111230252Y-74559500D01*
X111230251Y-74559500D01*
X111230241Y-74559501D01*
X111171772Y-74571132D01*
X111171766Y-74571134D01*
X111105451Y-74615445D01*
X111105445Y-74615451D01*
X111061134Y-74681766D01*
X111061132Y-74681772D01*
X111049501Y-74740241D01*
X111049500Y-74740253D01*
X110500500Y-74740253D01*
X110500500Y-70191550D01*
X110519407Y-70133359D01*
X110568907Y-70097395D01*
X110599500Y-70092550D01*
X164400500Y-70092550D01*
X164458691Y-70111457D01*
G37*
%TD.AperFunction*%
%TD*%
M02*
