M48
; DRILL file KiCad 10.0.3 date 2026-06-17T13:53:06
; FORMAT={-:-/ absolute / metric / decimal}
; #@! TF.CreationDate,2026-06-17T13:53:06-03:00
; #@! TF.GenerationSoftware,Kicad,Pcbnew,10.0.3
; #@! TF.FileFunction,Plated,1,2,PTH
FMAT,2
METRIC
; #@! TA.AperFunction,Plated,PTH,ViaDrill
T1C0.300
; #@! TA.AperFunction,Plated,PTH,ComponentDrill
T2C0.700
; #@! TA.AperFunction,Plated,PTH,ComponentDrill
T3C0.710
; #@! TA.AperFunction,Plated,PTH,ComponentDrill
T4C0.770
; #@! TA.AperFunction,Plated,PTH,ComponentDrill
T5C0.800
; #@! TA.AperFunction,Plated,PTH,ComponentDrill
T6C0.810
; #@! TA.AperFunction,Plated,PTH,ComponentDrill
T7C0.850
; #@! TA.AperFunction,Plated,PTH,ComponentDrill
T8C1.000
; #@! TA.AperFunction,Plated,PTH,ComponentDrill
T9C2.000
%
G90
G05
T1
X116.84Y-110.625
T2
X141.602Y-90.085
X141.602Y-93.535
X141.602Y-96.985
X141.602Y-100.435
X141.602Y-103.885
X141.602Y-107.335
X141.602Y-110.785
X141.602Y-114.235
X141.602Y-117.685
X141.602Y-121.135
X148.903Y-90.085
X148.903Y-93.535
X148.903Y-96.985
X148.903Y-100.435
X148.903Y-103.885
X148.903Y-107.335
X148.903Y-110.785
X148.903Y-114.235
X148.903Y-117.685
X148.903Y-121.135
X152.975Y-121.234
X162.525Y-121.234
T3
X136.61Y-109.26
X136.61Y-111.8
X136.61Y-114.34
T4
X113.59Y-107.822
X113.59Y-115.762
X116.13Y-107.822
X116.13Y-115.762
X118.67Y-107.822
X118.67Y-115.762
X121.21Y-107.822
X121.21Y-115.762
X123.75Y-107.822
X123.75Y-115.762
X126.29Y-107.822
X126.29Y-115.762
X128.83Y-107.822
X128.83Y-115.762
T5
X153.75Y-75.484
X153.75Y-98.01
X156.417Y-75.484
X156.417Y-98.01
X159.083Y-75.484
X159.083Y-98.01
X161.75Y-75.484
X161.75Y-98.01
T6
X127.915Y-120.72
X130.455Y-120.72
X135.21Y-120.72
X137.75Y-120.72
T7
X113.04Y-120.22
X115.54Y-120.22
X120.68Y-120.22
X123.18Y-120.22
T8
X113.3Y-91.12
X113.3Y-104.12
X136.3Y-91.12
X136.3Y-94.12
X136.3Y-101.12
X136.3Y-104.12
T9
X113.75Y-76.26
X113.75Y-83.26
X145.75Y-76.26
X145.75Y-83.26
M30
